<?xml version="1.0" encoding="utf-8" standalone="no"?>
<!DOCTYPE svg PUBLIC "-//W3C//DTD SVG 1.1//EN"
  "http://www.w3.org/Graphics/SVG/1.1/DTD/svg11.dtd">
<svg xmlns:xlink="http://www.w3.org/1999/xlink" width="936pt" height="504pt" viewBox="0 0 936 504" xmlns="http://www.w3.org/2000/svg" version="1.1">
 <metadata>
  <rdf:RDF xmlns:dc="http://purl.org/dc/elements/1.1/" xmlns:cc="http://creativecommons.org/ns#" xmlns:rdf="http://www.w3.org/1999/02/22-rdf-syntax-ns#">
   <cc:Work>
    <dc:type rdf:resource="http://purl.org/dc/dcmitype/StillImage"/>
    <dc:date>2022-08-03T10:07:42.687381</dc:date>
    <dc:format>image/svg+xml</dc:format>
    <dc:creator>
     <cc:Agent>
      <dc:title>Matplotlib v3.5.1, https://matplotlib.org/</dc:title>
     </cc:Agent>
    </dc:creator>
   </cc:Work>
  </rdf:RDF>
 </metadata>
 <defs>
  <style type="text/css">*{stroke-linejoin: round; stroke-linecap: butt}</style>
 </defs>
 <g id="figure_1">
  <g id="patch_1">
   <path d="M 0 504 
L 936 504 
L 936 0 
L 0 0 
z
" style="fill: #ffffff"/>
  </g>
  <g id="axes_1">
   <g id="patch_2">
    <path d="M 51.32 455.74 
L 925.2 455.74 
L 925.2 28.32 
L 51.32 28.32 
z
" style="fill: #ffffff"/>
   </g>
   <g id="patch_3">
    <path d="M 51.32 455.74 
L 54.354306 455.74 
L 54.354306 85.679394 
L 51.32 85.679394 
z
" clip-path="url(#pf6e5d578a0)" style="fill: #1f77b4"/>
   </g>
   <g id="patch_4">
    <path d="M 54.354306 455.74 
L 57.388611 455.74 
L 57.388611 85.679394 
L 54.354306 85.679394 
z
" clip-path="url(#pf6e5d578a0)" style="fill: #1f77b4"/>
   </g>
   <g id="patch_5">
    <path d="M 57.388611 455.74 
L 60.422917 455.74 
L 60.422917 85.679394 
L 57.388611 85.679394 
z
" clip-path="url(#pf6e5d578a0)" style="fill: #1f77b4"/>
   </g>
   <g id="patch_6">
    <path d="M 60.422917 455.74 
L 63.457222 455.74 
L 63.457222 85.679394 
L 60.422917 85.679394 
z
" clip-path="url(#pf6e5d578a0)" style="fill: #1f77b4"/>
   </g>
   <g id="patch_7">
    <path d="M 63.457222 455.74 
L 66.491528 455.74 
L 66.491528 85.679394 
L 63.457222 85.679394 
z
" clip-path="url(#pf6e5d578a0)" style="fill: #1f77b4"/>
   </g>
   <g id="patch_8">
    <path d="M 66.491528 455.74 
L 69.525833 455.74 
L 69.525833 85.679394 
L 66.491528 85.679394 
z
" clip-path="url(#pf6e5d578a0)" style="fill: #1f77b4"/>
   </g>
   <g id="patch_9">
    <path d="M 69.525833 455.74 
L 72.560139 455.74 
L 72.560139 85.679394 
L 69.525833 85.679394 
z
" clip-path="url(#pf6e5d578a0)" style="fill: #1f77b4"/>
   </g>
   <g id="patch_10">
    <path d="M 72.560139 455.74 
L 75.594444 455.74 
L 75.594444 85.679394 
L 72.560139 85.679394 
z
" clip-path="url(#pf6e5d578a0)" style="fill: #1f77b4"/>
   </g>
   <g id="patch_11">
    <path d="M 75.594444 455.74 
L 78.62875 455.74 
L 78.62875 85.679394 
L 75.594444 85.679394 
z
" clip-path="url(#pf6e5d578a0)" style="fill: #1f77b4"/>
   </g>
   <g id="patch_12">
    <path d="M 78.62875 455.74 
L 81.663056 455.74 
L 81.663056 85.679394 
L 78.62875 85.679394 
z
" clip-path="url(#pf6e5d578a0)" style="fill: #1f77b4"/>
   </g>
   <g id="patch_13">
    <path d="M 81.663056 455.74 
L 84.697361 455.74 
L 84.697361 85.679394 
L 81.663056 85.679394 
z
" clip-path="url(#pf6e5d578a0)" style="fill: #1f77b4"/>
   </g>
   <g id="patch_14">
    <path d="M 84.697361 455.74 
L 87.731667 455.74 
L 87.731667 85.679394 
L 84.697361 85.679394 
z
" clip-path="url(#pf6e5d578a0)" style="fill: #1f77b4"/>
   </g>
   <g id="patch_15">
    <path d="M 87.731667 455.74 
L 90.765972 455.74 
L 90.765972 204.366727 
L 87.731667 204.366727 
z
" clip-path="url(#pf6e5d578a0)" style="fill: #1f77b4"/>
   </g>
   <g id="patch_16">
    <path d="M 90.765972 455.74 
L 93.800278 455.74 
L 93.800278 455.74 
L 90.765972 455.74 
z
" clip-path="url(#pf6e5d578a0)" style="fill: #1f77b4"/>
   </g>
   <g id="patch_17">
    <path d="M 93.800278 455.74 
L 96.834583 455.74 
L 96.834583 455.74 
L 93.800278 455.74 
z
" clip-path="url(#pf6e5d578a0)" style="fill: #1f77b4"/>
   </g>
   <g id="patch_18">
    <path d="M 96.834583 455.74 
L 99.868889 455.74 
L 99.868889 455.74 
L 96.834583 455.74 
z
" clip-path="url(#pf6e5d578a0)" style="fill: #1f77b4"/>
   </g>
   <g id="patch_19">
    <path d="M 99.868889 455.74 
L 102.903194 455.74 
L 102.903194 85.679394 
L 99.868889 85.679394 
z
" clip-path="url(#pf6e5d578a0)" style="fill: #1f77b4"/>
   </g>
   <g id="patch_20">
    <path d="M 102.903194 455.74 
L 105.9375 455.74 
L 105.9375 85.679394 
L 102.903194 85.679394 
z
" clip-path="url(#pf6e5d578a0)" style="fill: #1f77b4"/>
   </g>
   <g id="patch_21">
    <path d="M 105.9375 455.74 
L 108.971806 455.74 
L 108.971806 85.679394 
L 105.9375 85.679394 
z
" clip-path="url(#pf6e5d578a0)" style="fill: #1f77b4"/>
   </g>
   <g id="patch_22">
    <path d="M 108.971806 455.74 
L 112.006111 455.74 
L 112.006111 85.679394 
L 108.971806 85.679394 
z
" clip-path="url(#pf6e5d578a0)" style="fill: #1f77b4"/>
   </g>
   <g id="patch_23">
    <path d="M 112.006111 455.74 
L 115.040417 455.74 
L 115.040417 85.679394 
L 112.006111 85.679394 
z
" clip-path="url(#pf6e5d578a0)" style="fill: #1f77b4"/>
   </g>
   <g id="patch_24">
    <path d="M 115.040417 455.74 
L 118.074722 455.74 
L 118.074722 85.679394 
L 115.040417 85.679394 
z
" clip-path="url(#pf6e5d578a0)" style="fill: #1f77b4"/>
   </g>
   <g id="patch_25">
    <path d="M 118.074722 455.74 
L 121.109028 455.74 
L 121.109028 85.679394 
L 118.074722 85.679394 
z
" clip-path="url(#pf6e5d578a0)" style="fill: #1f77b4"/>
   </g>
   <g id="patch_26">
    <path d="M 121.109028 455.74 
L 124.143333 455.74 
L 124.143333 85.679394 
L 121.109028 85.679394 
z
" clip-path="url(#pf6e5d578a0)" style="fill: #1f77b4"/>
   </g>
   <g id="patch_27">
    <path d="M 124.143333 455.74 
L 127.177639 455.74 
L 127.177639 85.679394 
L 124.143333 85.679394 
z
" clip-path="url(#pf6e5d578a0)" style="fill: #1f77b4"/>
   </g>
   <g id="patch_28">
    <path d="M 127.177639 455.74 
L 130.211944 455.74 
L 130.211944 85.679394 
L 127.177639 85.679394 
z
" clip-path="url(#pf6e5d578a0)" style="fill: #1f77b4"/>
   </g>
   <g id="patch_29">
    <path d="M 130.211944 455.74 
L 133.24625 455.74 
L 133.24625 85.679394 
L 130.211944 85.679394 
z
" clip-path="url(#pf6e5d578a0)" style="fill: #1f77b4"/>
   </g>
   <g id="patch_30">
    <path d="M 133.24625 455.74 
L 136.280556 455.74 
L 136.280556 85.679394 
L 133.24625 85.679394 
z
" clip-path="url(#pf6e5d578a0)" style="fill: #1f77b4"/>
   </g>
   <g id="patch_31">
    <path d="M 136.280556 455.74 
L 139.314861 455.74 
L 139.314861 85.679394 
L 136.280556 85.679394 
z
" clip-path="url(#pf6e5d578a0)" style="fill: #1f77b4"/>
   </g>
   <g id="patch_32">
    <path d="M 139.314861 455.74 
L 142.349167 455.74 
L 142.349167 85.679394 
L 139.314861 85.679394 
z
" clip-path="url(#pf6e5d578a0)" style="fill: #1f77b4"/>
   </g>
   <g id="patch_33">
    <path d="M 142.349167 455.74 
L 145.383472 455.74 
L 145.383472 85.679394 
L 142.349167 85.679394 
z
" clip-path="url(#pf6e5d578a0)" style="fill: #1f77b4"/>
   </g>
   <g id="patch_34">
    <path d="M 145.383472 455.74 
L 148.417778 455.74 
L 148.417778 85.679394 
L 145.383472 85.679394 
z
" clip-path="url(#pf6e5d578a0)" style="fill: #1f77b4"/>
   </g>
   <g id="patch_35">
    <path d="M 148.417778 455.74 
L 151.452083 455.74 
L 151.452083 85.679394 
L 148.417778 85.679394 
z
" clip-path="url(#pf6e5d578a0)" style="fill: #1f77b4"/>
   </g>
   <g id="patch_36">
    <path d="M 151.452083 455.74 
L 154.486389 455.74 
L 154.486389 455.74 
L 151.452083 455.74 
z
" clip-path="url(#pf6e5d578a0)" style="fill: #1f77b4"/>
   </g>
   <g id="patch_37">
    <path d="M 154.486389 455.74 
L 157.520694 455.74 
L 157.520694 455.74 
L 154.486389 455.74 
z
" clip-path="url(#pf6e5d578a0)" style="fill: #1f77b4"/>
   </g>
   <g id="patch_38">
    <path d="M 157.520694 455.74 
L 160.555 455.74 
L 160.555 455.74 
L 157.520694 455.74 
z
" clip-path="url(#pf6e5d578a0)" style="fill: #1f77b4"/>
   </g>
   <g id="patch_39">
    <path d="M 160.555 455.74 
L 163.589306 455.74 
L 163.589306 455.74 
L 160.555 455.74 
z
" clip-path="url(#pf6e5d578a0)" style="fill: #1f77b4"/>
   </g>
   <g id="patch_40">
    <path d="M 163.589306 455.74 
L 166.623611 455.74 
L 166.623611 455.74 
L 163.589306 455.74 
z
" clip-path="url(#pf6e5d578a0)" style="fill: #1f77b4"/>
   </g>
   <g id="patch_41">
    <path d="M 166.623611 455.74 
L 169.657917 455.74 
L 169.657917 455.74 
L 166.623611 455.74 
z
" clip-path="url(#pf6e5d578a0)" style="fill: #1f77b4"/>
   </g>
   <g id="patch_42">
    <path d="M 169.657917 455.74 
L 172.692222 455.74 
L 172.692222 455.74 
L 169.657917 455.74 
z
" clip-path="url(#pf6e5d578a0)" style="fill: #1f77b4"/>
   </g>
   <g id="patch_43">
    <path d="M 172.692222 455.74 
L 175.726528 455.74 
L 175.726528 455.74 
L 172.692222 455.74 
z
" clip-path="url(#pf6e5d578a0)" style="fill: #1f77b4"/>
   </g>
   <g id="patch_44">
    <path d="M 175.726528 455.74 
L 178.760833 455.74 
L 178.760833 455.74 
L 175.726528 455.74 
z
" clip-path="url(#pf6e5d578a0)" style="fill: #1f77b4"/>
   </g>
   <g id="patch_45">
    <path d="M 178.760833 455.74 
L 181.795139 455.74 
L 181.795139 85.679394 
L 178.760833 85.679394 
z
" clip-path="url(#pf6e5d578a0)" style="fill: #1f77b4"/>
   </g>
   <g id="patch_46">
    <path d="M 181.795139 455.74 
L 184.829444 455.74 
L 184.829444 85.679394 
L 181.795139 85.679394 
z
" clip-path="url(#pf6e5d578a0)" style="fill: #1f77b4"/>
   </g>
   <g id="patch_47">
    <path d="M 184.829444 455.74 
L 187.86375 455.74 
L 187.86375 85.679394 
L 184.829444 85.679394 
z
" clip-path="url(#pf6e5d578a0)" style="fill: #1f77b4"/>
   </g>
   <g id="patch_48">
    <path d="M 187.86375 455.74 
L 190.898056 455.74 
L 190.898056 85.679394 
L 187.86375 85.679394 
z
" clip-path="url(#pf6e5d578a0)" style="fill: #1f77b4"/>
   </g>
   <g id="patch_49">
    <path d="M 190.898056 455.74 
L 193.932361 455.74 
L 193.932361 85.679394 
L 190.898056 85.679394 
z
" clip-path="url(#pf6e5d578a0)" style="fill: #1f77b4"/>
   </g>
   <g id="patch_50">
    <path d="M 193.932361 455.74 
L 196.966667 455.74 
L 196.966667 85.679394 
L 193.932361 85.679394 
z
" clip-path="url(#pf6e5d578a0)" style="fill: #1f77b4"/>
   </g>
   <g id="patch_51">
    <path d="M 196.966667 455.74 
L 200.000972 455.74 
L 200.000972 85.679394 
L 196.966667 85.679394 
z
" clip-path="url(#pf6e5d578a0)" style="fill: #1f77b4"/>
   </g>
   <g id="patch_52">
    <path d="M 200.000972 455.74 
L 203.035278 455.74 
L 203.035278 85.679394 
L 200.000972 85.679394 
z
" clip-path="url(#pf6e5d578a0)" style="fill: #1f77b4"/>
   </g>
   <g id="patch_53">
    <path d="M 203.035278 455.74 
L 206.069583 455.74 
L 206.069583 85.679394 
L 203.035278 85.679394 
z
" clip-path="url(#pf6e5d578a0)" style="fill: #1f77b4"/>
   </g>
   <g id="patch_54">
    <path d="M 206.069583 455.74 
L 209.103889 455.74 
L 209.103889 85.679394 
L 206.069583 85.679394 
z
" clip-path="url(#pf6e5d578a0)" style="fill: #1f77b4"/>
   </g>
   <g id="patch_55">
    <path d="M 209.103889 455.74 
L 212.138194 455.74 
L 212.138194 85.679394 
L 209.103889 85.679394 
z
" clip-path="url(#pf6e5d578a0)" style="fill: #1f77b4"/>
   </g>
   <g id="patch_56">
    <path d="M 212.138194 455.74 
L 215.1725 455.74 
L 215.1725 85.679394 
L 212.138194 85.679394 
z
" clip-path="url(#pf6e5d578a0)" style="fill: #1f77b4"/>
   </g>
   <g id="patch_57">
    <path d="M 215.1725 455.74 
L 218.206806 455.74 
L 218.206806 85.679394 
L 215.1725 85.679394 
z
" clip-path="url(#pf6e5d578a0)" style="fill: #1f77b4"/>
   </g>
   <g id="patch_58">
    <path d="M 218.206806 455.74 
L 221.241111 455.74 
L 221.241111 455.74 
L 218.206806 455.74 
z
" clip-path="url(#pf6e5d578a0)" style="fill: #1f77b4"/>
   </g>
   <g id="patch_59">
    <path d="M 221.241111 455.74 
L 224.275417 455.74 
L 224.275417 455.74 
L 221.241111 455.74 
z
" clip-path="url(#pf6e5d578a0)" style="fill: #1f77b4"/>
   </g>
   <g id="patch_60">
    <path d="M 224.275417 455.74 
L 227.309722 455.74 
L 227.309722 455.74 
L 224.275417 455.74 
z
" clip-path="url(#pf6e5d578a0)" style="fill: #1f77b4"/>
   </g>
   <g id="patch_61">
    <path d="M 227.309722 455.74 
L 230.344028 455.74 
L 230.344028 455.74 
L 227.309722 455.74 
z
" clip-path="url(#pf6e5d578a0)" style="fill: #1f77b4"/>
   </g>
   <g id="patch_62">
    <path d="M 230.344028 455.74 
L 233.378333 455.74 
L 233.378333 455.74 
L 230.344028 455.74 
z
" clip-path="url(#pf6e5d578a0)" style="fill: #1f77b4"/>
   </g>
   <g id="patch_63">
    <path d="M 233.378333 455.74 
L 236.412639 455.74 
L 236.412639 455.74 
L 233.378333 455.74 
z
" clip-path="url(#pf6e5d578a0)" style="fill: #1f77b4"/>
   </g>
   <g id="patch_64">
    <path d="M 236.412639 455.74 
L 239.446944 455.74 
L 239.446944 455.74 
L 236.412639 455.74 
z
" clip-path="url(#pf6e5d578a0)" style="fill: #1f77b4"/>
   </g>
   <g id="patch_65">
    <path d="M 239.446944 455.74 
L 242.48125 455.74 
L 242.48125 455.74 
L 239.446944 455.74 
z
" clip-path="url(#pf6e5d578a0)" style="fill: #1f77b4"/>
   </g>
   <g id="patch_66">
    <path d="M 242.48125 455.74 
L 245.515556 455.74 
L 245.515556 455.74 
L 242.48125 455.74 
z
" clip-path="url(#pf6e5d578a0)" style="fill: #1f77b4"/>
   </g>
   <g id="patch_67">
    <path d="M 245.515556 455.74 
L 248.549861 455.74 
L 248.549861 455.74 
L 245.515556 455.74 
z
" clip-path="url(#pf6e5d578a0)" style="fill: #1f77b4"/>
   </g>
   <g id="patch_68">
    <path d="M 248.549861 455.74 
L 251.584167 455.74 
L 251.584167 455.74 
L 248.549861 455.74 
z
" clip-path="url(#pf6e5d578a0)" style="fill: #1f77b4"/>
   </g>
   <g id="patch_69">
    <path d="M 251.584167 455.74 
L 254.618472 455.74 
L 254.618472 455.74 
L 251.584167 455.74 
z
" clip-path="url(#pf6e5d578a0)" style="fill: #1f77b4"/>
   </g>
   <g id="patch_70">
    <path d="M 254.618472 455.74 
L 257.652778 455.74 
L 257.652778 85.679394 
L 254.618472 85.679394 
z
" clip-path="url(#pf6e5d578a0)" style="fill: #1f77b4"/>
   </g>
   <g id="patch_71">
    <path d="M 257.652778 455.74 
L 260.687083 455.74 
L 260.687083 85.679394 
L 257.652778 85.679394 
z
" clip-path="url(#pf6e5d578a0)" style="fill: #1f77b4"/>
   </g>
   <g id="patch_72">
    <path d="M 260.687083 455.74 
L 263.721389 455.74 
L 263.721389 85.679394 
L 260.687083 85.679394 
z
" clip-path="url(#pf6e5d578a0)" style="fill: #1f77b4"/>
   </g>
   <g id="patch_73">
    <path d="M 263.721389 455.74 
L 266.755694 455.74 
L 266.755694 85.679394 
L 263.721389 85.679394 
z
" clip-path="url(#pf6e5d578a0)" style="fill: #1f77b4"/>
   </g>
   <g id="patch_74">
    <path d="M 266.755694 455.74 
L 269.79 455.74 
L 269.79 85.679394 
L 266.755694 85.679394 
z
" clip-path="url(#pf6e5d578a0)" style="fill: #1f77b4"/>
   </g>
   <g id="patch_75">
    <path d="M 269.79 455.74 
L 272.824306 455.74 
L 272.824306 85.679394 
L 269.79 85.679394 
z
" clip-path="url(#pf6e5d578a0)" style="fill: #1f77b4"/>
   </g>
   <g id="patch_76">
    <path d="M 272.824306 455.74 
L 275.858611 455.74 
L 275.858611 85.679394 
L 272.824306 85.679394 
z
" clip-path="url(#pf6e5d578a0)" style="fill: #1f77b4"/>
   </g>
   <g id="patch_77">
    <path d="M 275.858611 455.74 
L 278.892917 455.74 
L 278.892917 85.679394 
L 275.858611 85.679394 
z
" clip-path="url(#pf6e5d578a0)" style="fill: #1f77b4"/>
   </g>
   <g id="patch_78">
    <path d="M 278.892917 455.74 
L 281.927222 455.74 
L 281.927222 85.679394 
L 278.892917 85.679394 
z
" clip-path="url(#pf6e5d578a0)" style="fill: #1f77b4"/>
   </g>
   <g id="patch_79">
    <path d="M 281.927222 455.74 
L 284.961528 455.74 
L 284.961528 85.679394 
L 281.927222 85.679394 
z
" clip-path="url(#pf6e5d578a0)" style="fill: #1f77b4"/>
   </g>
   <g id="patch_80">
    <path d="M 284.961528 455.74 
L 287.995833 455.74 
L 287.995833 85.679394 
L 284.961528 85.679394 
z
" clip-path="url(#pf6e5d578a0)" style="fill: #1f77b4"/>
   </g>
   <g id="patch_81">
    <path d="M 287.995833 455.74 
L 291.030139 455.74 
L 291.030139 85.679401 
L 287.995833 85.679401 
z
" clip-path="url(#pf6e5d578a0)" style="fill: #1f77b4"/>
   </g>
   <g id="patch_82">
    <path d="M 291.030139 455.74 
L 294.064444 455.74 
L 294.064444 455.74 
L 291.030139 455.74 
z
" clip-path="url(#pf6e5d578a0)" style="fill: #1f77b4"/>
   </g>
   <g id="patch_83">
    <path d="M 294.064444 455.74 
L 297.09875 455.74 
L 297.09875 455.74 
L 294.064444 455.74 
z
" clip-path="url(#pf6e5d578a0)" style="fill: #1f77b4"/>
   </g>
   <g id="patch_84">
    <path d="M 297.09875 455.74 
L 300.133056 455.74 
L 300.133056 455.74 
L 297.09875 455.74 
z
" clip-path="url(#pf6e5d578a0)" style="fill: #1f77b4"/>
   </g>
   <g id="patch_85">
    <path d="M 300.133056 455.74 
L 303.167361 455.74 
L 303.167361 455.74 
L 300.133056 455.74 
z
" clip-path="url(#pf6e5d578a0)" style="fill: #1f77b4"/>
   </g>
   <g id="patch_86">
    <path d="M 303.167361 455.74 
L 306.201667 455.74 
L 306.201667 455.74 
L 303.167361 455.74 
z
" clip-path="url(#pf6e5d578a0)" style="fill: #1f77b4"/>
   </g>
   <g id="patch_87">
    <path d="M 306.201667 455.74 
L 309.235972 455.74 
L 309.235972 455.74 
L 306.201667 455.74 
z
" clip-path="url(#pf6e5d578a0)" style="fill: #1f77b4"/>
   </g>
   <g id="patch_88">
    <path d="M 309.235972 455.74 
L 312.270278 455.74 
L 312.270278 455.74 
L 309.235972 455.74 
z
" clip-path="url(#pf6e5d578a0)" style="fill: #1f77b4"/>
   </g>
   <g id="patch_89">
    <path d="M 312.270278 455.74 
L 315.304583 455.74 
L 315.304583 455.74 
L 312.270278 455.74 
z
" clip-path="url(#pf6e5d578a0)" style="fill: #1f77b4"/>
   </g>
   <g id="patch_90">
    <path d="M 315.304583 455.74 
L 318.338889 455.74 
L 318.338889 455.74 
L 315.304583 455.74 
z
" clip-path="url(#pf6e5d578a0)" style="fill: #1f77b4"/>
   </g>
   <g id="patch_91">
    <path d="M 318.338889 455.74 
L 321.373194 455.74 
L 321.373194 455.74 
L 318.338889 455.74 
z
" clip-path="url(#pf6e5d578a0)" style="fill: #1f77b4"/>
   </g>
   <g id="patch_92">
    <path d="M 321.373194 455.74 
L 324.4075 455.74 
L 324.4075 455.74 
L 321.373194 455.74 
z
" clip-path="url(#pf6e5d578a0)" style="fill: #1f77b4"/>
   </g>
   <g id="patch_93">
    <path d="M 324.4075 455.74 
L 327.441806 455.74 
L 327.441806 455.74 
L 324.4075 455.74 
z
" clip-path="url(#pf6e5d578a0)" style="fill: #1f77b4"/>
   </g>
   <g id="patch_94">
    <path d="M 327.441806 455.74 
L 330.476111 455.74 
L 330.476111 85.679394 
L 327.441806 85.679394 
z
" clip-path="url(#pf6e5d578a0)" style="fill: #1f77b4"/>
   </g>
   <g id="patch_95">
    <path d="M 330.476111 455.74 
L 333.510417 455.74 
L 333.510417 85.679394 
L 330.476111 85.679394 
z
" clip-path="url(#pf6e5d578a0)" style="fill: #1f77b4"/>
   </g>
   <g id="patch_96">
    <path d="M 333.510417 455.74 
L 336.544722 455.74 
L 336.544722 85.679394 
L 333.510417 85.679394 
z
" clip-path="url(#pf6e5d578a0)" style="fill: #1f77b4"/>
   </g>
   <g id="patch_97">
    <path d="M 336.544722 455.74 
L 339.579028 455.74 
L 339.579028 85.679394 
L 336.544722 85.679394 
z
" clip-path="url(#pf6e5d578a0)" style="fill: #1f77b4"/>
   </g>
   <g id="patch_98">
    <path d="M 339.579028 455.74 
L 342.613333 455.74 
L 342.613333 85.679394 
L 339.579028 85.679394 
z
" clip-path="url(#pf6e5d578a0)" style="fill: #1f77b4"/>
   </g>
   <g id="patch_99">
    <path d="M 342.613333 455.74 
L 345.647639 455.74 
L 345.647639 85.679394 
L 342.613333 85.679394 
z
" clip-path="url(#pf6e5d578a0)" style="fill: #1f77b4"/>
   </g>
   <g id="patch_100">
    <path d="M 345.647639 455.74 
L 348.681944 455.74 
L 348.681944 85.679394 
L 345.647639 85.679394 
z
" clip-path="url(#pf6e5d578a0)" style="fill: #1f77b4"/>
   </g>
   <g id="patch_101">
    <path d="M 348.681944 455.74 
L 351.71625 455.74 
L 351.71625 85.679394 
L 348.681944 85.679394 
z
" clip-path="url(#pf6e5d578a0)" style="fill: #1f77b4"/>
   </g>
   <g id="patch_102">
    <path d="M 351.71625 455.74 
L 354.750556 455.74 
L 354.750556 85.679394 
L 351.71625 85.679394 
z
" clip-path="url(#pf6e5d578a0)" style="fill: #1f77b4"/>
   </g>
   <g id="patch_103">
    <path d="M 354.750556 455.74 
L 357.784861 455.74 
L 357.784861 85.679394 
L 354.750556 85.679394 
z
" clip-path="url(#pf6e5d578a0)" style="fill: #1f77b4"/>
   </g>
   <g id="patch_104">
    <path d="M 357.784861 455.74 
L 360.819167 455.74 
L 360.819167 85.679394 
L 357.784861 85.679394 
z
" clip-path="url(#pf6e5d578a0)" style="fill: #1f77b4"/>
   </g>
   <g id="patch_105">
    <path d="M 360.819167 455.74 
L 363.853472 455.74 
L 363.853472 455.74 
L 360.819167 455.74 
z
" clip-path="url(#pf6e5d578a0)" style="fill: #1f77b4"/>
   </g>
   <g id="patch_106">
    <path d="M 363.853472 455.74 
L 366.887778 455.74 
L 366.887778 455.74 
L 363.853472 455.74 
z
" clip-path="url(#pf6e5d578a0)" style="fill: #1f77b4"/>
   </g>
   <g id="patch_107">
    <path d="M 366.887778 455.74 
L 369.922083 455.74 
L 369.922083 455.74 
L 366.887778 455.74 
z
" clip-path="url(#pf6e5d578a0)" style="fill: #1f77b4"/>
   </g>
   <g id="patch_108">
    <path d="M 369.922083 455.74 
L 372.956389 455.74 
L 372.956389 455.74 
L 369.922083 455.74 
z
" clip-path="url(#pf6e5d578a0)" style="fill: #1f77b4"/>
   </g>
   <g id="patch_109">
    <path d="M 372.956389 455.74 
L 375.990694 455.74 
L 375.990694 455.74 
L 372.956389 455.74 
z
" clip-path="url(#pf6e5d578a0)" style="fill: #1f77b4"/>
   </g>
   <g id="patch_110">
    <path d="M 375.990694 455.74 
L 379.025 455.74 
L 379.025 455.74 
L 375.990694 455.74 
z
" clip-path="url(#pf6e5d578a0)" style="fill: #1f77b4"/>
   </g>
   <g id="patch_111">
    <path d="M 379.025 455.74 
L 382.059306 455.74 
L 382.059306 455.74 
L 379.025 455.74 
z
" clip-path="url(#pf6e5d578a0)" style="fill: #1f77b4"/>
   </g>
   <g id="patch_112">
    <path d="M 382.059306 455.74 
L 385.093611 455.74 
L 385.093611 455.74 
L 382.059306 455.74 
z
" clip-path="url(#pf6e5d578a0)" style="fill: #1f77b4"/>
   </g>
   <g id="patch_113">
    <path d="M 385.093611 455.74 
L 388.127917 455.74 
L 388.127917 455.74 
L 385.093611 455.74 
z
" clip-path="url(#pf6e5d578a0)" style="fill: #1f77b4"/>
   </g>
   <g id="patch_114">
    <path d="M 388.127917 455.74 
L 391.162222 455.74 
L 391.162222 455.74 
L 388.127917 455.74 
z
" clip-path="url(#pf6e5d578a0)" style="fill: #1f77b4"/>
   </g>
   <g id="patch_115">
    <path d="M 391.162222 455.74 
L 394.196528 455.74 
L 394.196528 455.74 
L 391.162222 455.74 
z
" clip-path="url(#pf6e5d578a0)" style="fill: #1f77b4"/>
   </g>
   <g id="patch_116">
    <path d="M 394.196528 455.74 
L 397.230833 455.74 
L 397.230833 455.74 
L 394.196528 455.74 
z
" clip-path="url(#pf6e5d578a0)" style="fill: #1f77b4"/>
   </g>
   <g id="patch_117">
    <path d="M 397.230833 455.74 
L 400.265139 455.74 
L 400.265139 85.67943 
L 397.230833 85.67943 
z
" clip-path="url(#pf6e5d578a0)" style="fill: #1f77b4"/>
   </g>
   <g id="patch_118">
    <path d="M 400.265139 455.74 
L 403.299444 455.74 
L 403.299444 85.679394 
L 400.265139 85.679394 
z
" clip-path="url(#pf6e5d578a0)" style="fill: #1f77b4"/>
   </g>
   <g id="patch_119">
    <path d="M 403.299444 455.74 
L 406.33375 455.74 
L 406.33375 85.679394 
L 403.299444 85.679394 
z
" clip-path="url(#pf6e5d578a0)" style="fill: #1f77b4"/>
   </g>
   <g id="patch_120">
    <path d="M 406.33375 455.74 
L 409.368056 455.74 
L 409.368056 85.679394 
L 406.33375 85.679394 
z
" clip-path="url(#pf6e5d578a0)" style="fill: #1f77b4"/>
   </g>
   <g id="patch_121">
    <path d="M 409.368056 455.74 
L 412.402361 455.74 
L 412.402361 85.679394 
L 409.368056 85.679394 
z
" clip-path="url(#pf6e5d578a0)" style="fill: #1f77b4"/>
   </g>
   <g id="patch_122">
    <path d="M 412.402361 455.74 
L 415.436667 455.74 
L 415.436667 85.679394 
L 412.402361 85.679394 
z
" clip-path="url(#pf6e5d578a0)" style="fill: #1f77b4"/>
   </g>
   <g id="patch_123">
    <path d="M 415.436667 455.74 
L 418.470972 455.74 
L 418.470972 85.679394 
L 415.436667 85.679394 
z
" clip-path="url(#pf6e5d578a0)" style="fill: #1f77b4"/>
   </g>
   <g id="patch_124">
    <path d="M 418.470972 455.74 
L 421.505278 455.74 
L 421.505278 85.679394 
L 418.470972 85.679394 
z
" clip-path="url(#pf6e5d578a0)" style="fill: #1f77b4"/>
   </g>
   <g id="patch_125">
    <path d="M 421.505278 455.74 
L 424.539583 455.74 
L 424.539583 85.679394 
L 421.505278 85.679394 
z
" clip-path="url(#pf6e5d578a0)" style="fill: #1f77b4"/>
   </g>
   <g id="patch_126">
    <path d="M 424.539583 455.74 
L 427.573889 455.74 
L 427.573889 85.679394 
L 424.539583 85.679394 
z
" clip-path="url(#pf6e5d578a0)" style="fill: #1f77b4"/>
   </g>
   <g id="patch_127">
    <path d="M 427.573889 455.74 
L 430.608194 455.74 
L 430.608194 85.679394 
L 427.573889 85.679394 
z
" clip-path="url(#pf6e5d578a0)" style="fill: #1f77b4"/>
   </g>
   <g id="patch_128">
    <path d="M 430.608194 455.74 
L 433.6425 455.74 
L 433.6425 85.679394 
L 430.608194 85.679394 
z
" clip-path="url(#pf6e5d578a0)" style="fill: #1f77b4"/>
   </g>
   <g id="patch_129">
    <path d="M 433.6425 455.74 
L 436.676806 455.74 
L 436.676806 85.679394 
L 433.6425 85.679394 
z
" clip-path="url(#pf6e5d578a0)" style="fill: #1f77b4"/>
   </g>
   <g id="patch_130">
    <path d="M 436.676806 455.74 
L 439.711111 455.74 
L 439.711111 455.74 
L 436.676806 455.74 
z
" clip-path="url(#pf6e5d578a0)" style="fill: #1f77b4"/>
   </g>
   <g id="patch_131">
    <path d="M 439.711111 455.74 
L 442.745417 455.74 
L 442.745417 455.74 
L 439.711111 455.74 
z
" clip-path="url(#pf6e5d578a0)" style="fill: #1f77b4"/>
   </g>
   <g id="patch_132">
    <path d="M 442.745417 455.74 
L 445.779722 455.74 
L 445.779722 455.74 
L 442.745417 455.74 
z
" clip-path="url(#pf6e5d578a0)" style="fill: #1f77b4"/>
   </g>
   <g id="patch_133">
    <path d="M 445.779722 455.74 
L 448.814028 455.74 
L 448.814028 455.74 
L 445.779722 455.74 
z
" clip-path="url(#pf6e5d578a0)" style="fill: #1f77b4"/>
   </g>
   <g id="patch_134">
    <path d="M 448.814028 455.74 
L 451.848333 455.74 
L 451.848333 455.74 
L 448.814028 455.74 
z
" clip-path="url(#pf6e5d578a0)" style="fill: #1f77b4"/>
   </g>
   <g id="patch_135">
    <path d="M 451.848333 455.74 
L 454.882639 455.74 
L 454.882639 455.74 
L 451.848333 455.74 
z
" clip-path="url(#pf6e5d578a0)" style="fill: #1f77b4"/>
   </g>
   <g id="patch_136">
    <path d="M 454.882639 455.74 
L 457.916944 455.74 
L 457.916944 455.74 
L 454.882639 455.74 
z
" clip-path="url(#pf6e5d578a0)" style="fill: #1f77b4"/>
   </g>
   <g id="patch_137">
    <path d="M 457.916944 455.74 
L 460.95125 455.74 
L 460.95125 455.74 
L 457.916944 455.74 
z
" clip-path="url(#pf6e5d578a0)" style="fill: #1f77b4"/>
   </g>
   <g id="patch_138">
    <path d="M 460.95125 455.74 
L 463.985556 455.74 
L 463.985556 455.74 
L 460.95125 455.74 
z
" clip-path="url(#pf6e5d578a0)" style="fill: #1f77b4"/>
   </g>
   <g id="patch_139">
    <path d="M 463.985556 455.74 
L 467.019861 455.74 
L 467.019861 455.74 
L 463.985556 455.74 
z
" clip-path="url(#pf6e5d578a0)" style="fill: #1f77b4"/>
   </g>
   <g id="patch_140">
    <path d="M 467.019861 455.74 
L 470.054167 455.74 
L 470.054167 455.74 
L 467.019861 455.74 
z
" clip-path="url(#pf6e5d578a0)" style="fill: #1f77b4"/>
   </g>
   <g id="patch_141">
    <path d="M 470.054167 455.74 
L 473.088472 455.74 
L 473.088472 455.74 
L 470.054167 455.74 
z
" clip-path="url(#pf6e5d578a0)" style="fill: #1f77b4"/>
   </g>
   <g id="patch_142">
    <path d="M 473.088472 455.74 
L 476.122778 455.74 
L 476.122778 85.679394 
L 473.088472 85.679394 
z
" clip-path="url(#pf6e5d578a0)" style="fill: #1f77b4"/>
   </g>
   <g id="patch_143">
    <path d="M 476.122778 455.74 
L 479.157083 455.74 
L 479.157083 85.679394 
L 476.122778 85.679394 
z
" clip-path="url(#pf6e5d578a0)" style="fill: #1f77b4"/>
   </g>
   <g id="patch_144">
    <path d="M 479.157083 455.74 
L 482.191389 455.74 
L 482.191389 85.679394 
L 479.157083 85.679394 
z
" clip-path="url(#pf6e5d578a0)" style="fill: #1f77b4"/>
   </g>
   <g id="patch_145">
    <path d="M 482.191389 455.74 
L 485.225694 455.74 
L 485.225694 85.679394 
L 482.191389 85.679394 
z
" clip-path="url(#pf6e5d578a0)" style="fill: #1f77b4"/>
   </g>
   <g id="patch_146">
    <path d="M 485.225694 455.74 
L 488.26 455.74 
L 488.26 85.679394 
L 485.225694 85.679394 
z
" clip-path="url(#pf6e5d578a0)" style="fill: #1f77b4"/>
   </g>
   <g id="patch_147">
    <path d="M 488.26 455.74 
L 491.294306 455.74 
L 491.294306 85.679394 
L 488.26 85.679394 
z
" clip-path="url(#pf6e5d578a0)" style="fill: #1f77b4"/>
   </g>
   <g id="patch_148">
    <path d="M 491.294306 455.74 
L 494.328611 455.74 
L 494.328611 85.679394 
L 491.294306 85.679394 
z
" clip-path="url(#pf6e5d578a0)" style="fill: #1f77b4"/>
   </g>
   <g id="patch_149">
    <path d="M 494.328611 455.74 
L 497.362917 455.74 
L 497.362917 85.679394 
L 494.328611 85.679394 
z
" clip-path="url(#pf6e5d578a0)" style="fill: #1f77b4"/>
   </g>
   <g id="patch_150">
    <path d="M 497.362917 455.74 
L 500.397222 455.74 
L 500.397222 85.679394 
L 497.362917 85.679394 
z
" clip-path="url(#pf6e5d578a0)" style="fill: #1f77b4"/>
   </g>
   <g id="patch_151">
    <path d="M 500.397222 455.74 
L 503.431528 455.74 
L 503.431528 85.679394 
L 500.397222 85.679394 
z
" clip-path="url(#pf6e5d578a0)" style="fill: #1f77b4"/>
   </g>
   <g id="patch_152">
    <path d="M 503.431528 455.74 
L 506.465833 455.74 
L 506.465833 85.679394 
L 503.431528 85.679394 
z
" clip-path="url(#pf6e5d578a0)" style="fill: #1f77b4"/>
   </g>
   <g id="patch_153">
    <path d="M 506.465833 455.74 
L 509.500139 455.74 
L 509.500139 85.679394 
L 506.465833 85.679394 
z
" clip-path="url(#pf6e5d578a0)" style="fill: #1f77b4"/>
   </g>
   <g id="patch_154">
    <path d="M 509.500139 455.74 
L 512.534444 455.74 
L 512.534444 455.74 
L 509.500139 455.74 
z
" clip-path="url(#pf6e5d578a0)" style="fill: #1f77b4"/>
   </g>
   <g id="patch_155">
    <path d="M 512.534444 455.74 
L 515.56875 455.74 
L 515.56875 455.74 
L 512.534444 455.74 
z
" clip-path="url(#pf6e5d578a0)" style="fill: #1f77b4"/>
   </g>
   <g id="patch_156">
    <path d="M 515.56875 455.74 
L 518.603056 455.74 
L 518.603056 455.74 
L 515.56875 455.74 
z
" clip-path="url(#pf6e5d578a0)" style="fill: #1f77b4"/>
   </g>
   <g id="patch_157">
    <path d="M 518.603056 455.74 
L 521.637361 455.74 
L 521.637361 455.74 
L 518.603056 455.74 
z
" clip-path="url(#pf6e5d578a0)" style="fill: #1f77b4"/>
   </g>
   <g id="patch_158">
    <path d="M 521.637361 455.74 
L 524.671667 455.74 
L 524.671667 455.74 
L 521.637361 455.74 
z
" clip-path="url(#pf6e5d578a0)" style="fill: #1f77b4"/>
   </g>
   <g id="patch_159">
    <path d="M 524.671667 455.74 
L 527.705972 455.74 
L 527.705972 455.74 
L 524.671667 455.74 
z
" clip-path="url(#pf6e5d578a0)" style="fill: #1f77b4"/>
   </g>
   <g id="patch_160">
    <path d="M 527.705972 455.74 
L 530.740278 455.74 
L 530.740278 455.74 
L 527.705972 455.74 
z
" clip-path="url(#pf6e5d578a0)" style="fill: #1f77b4"/>
   </g>
   <g id="patch_161">
    <path d="M 530.740278 455.74 
L 533.774583 455.74 
L 533.774583 455.74 
L 530.740278 455.74 
z
" clip-path="url(#pf6e5d578a0)" style="fill: #1f77b4"/>
   </g>
   <g id="patch_162">
    <path d="M 533.774583 455.74 
L 536.808889 455.74 
L 536.808889 455.74 
L 533.774583 455.74 
z
" clip-path="url(#pf6e5d578a0)" style="fill: #1f77b4"/>
   </g>
   <g id="patch_163">
    <path d="M 536.808889 455.74 
L 539.843194 455.74 
L 539.843194 455.74 
L 536.808889 455.74 
z
" clip-path="url(#pf6e5d578a0)" style="fill: #1f77b4"/>
   </g>
   <g id="patch_164">
    <path d="M 539.843194 455.74 
L 542.8775 455.74 
L 542.8775 455.74 
L 539.843194 455.74 
z
" clip-path="url(#pf6e5d578a0)" style="fill: #1f77b4"/>
   </g>
   <g id="patch_165">
    <path d="M 542.8775 455.74 
L 545.911806 455.74 
L 545.911806 455.74 
L 542.8775 455.74 
z
" clip-path="url(#pf6e5d578a0)" style="fill: #1f77b4"/>
   </g>
   <g id="patch_166">
    <path d="M 545.911806 455.74 
L 548.946111 455.74 
L 548.946111 85.679394 
L 545.911806 85.679394 
z
" clip-path="url(#pf6e5d578a0)" style="fill: #1f77b4"/>
   </g>
   <g id="patch_167">
    <path d="M 548.946111 455.74 
L 551.980417 455.74 
L 551.980417 85.679394 
L 548.946111 85.679394 
z
" clip-path="url(#pf6e5d578a0)" style="fill: #1f77b4"/>
   </g>
   <g id="patch_168">
    <path d="M 551.980417 455.74 
L 555.014722 455.74 
L 555.014722 85.679394 
L 551.980417 85.679394 
z
" clip-path="url(#pf6e5d578a0)" style="fill: #1f77b4"/>
   </g>
   <g id="patch_169">
    <path d="M 555.014722 455.74 
L 558.049028 455.74 
L 558.049028 85.679394 
L 555.014722 85.679394 
z
" clip-path="url(#pf6e5d578a0)" style="fill: #1f77b4"/>
   </g>
   <g id="patch_170">
    <path d="M 558.049028 455.74 
L 561.083333 455.74 
L 561.083333 85.679394 
L 558.049028 85.679394 
z
" clip-path="url(#pf6e5d578a0)" style="fill: #1f77b4"/>
   </g>
   <g id="patch_171">
    <path d="M 561.083333 455.74 
L 564.117639 455.74 
L 564.117639 85.679394 
L 561.083333 85.679394 
z
" clip-path="url(#pf6e5d578a0)" style="fill: #1f77b4"/>
   </g>
   <g id="patch_172">
    <path d="M 564.117639 455.74 
L 567.151944 455.74 
L 567.151944 85.679394 
L 564.117639 85.679394 
z
" clip-path="url(#pf6e5d578a0)" style="fill: #1f77b4"/>
   </g>
   <g id="patch_173">
    <path d="M 567.151944 455.74 
L 570.18625 455.74 
L 570.18625 85.679394 
L 567.151944 85.679394 
z
" clip-path="url(#pf6e5d578a0)" style="fill: #1f77b4"/>
   </g>
   <g id="patch_174">
    <path d="M 570.18625 455.74 
L 573.220556 455.74 
L 573.220556 85.679394 
L 570.18625 85.679394 
z
" clip-path="url(#pf6e5d578a0)" style="fill: #1f77b4"/>
   </g>
   <g id="patch_175">
    <path d="M 573.220556 455.74 
L 576.254861 455.74 
L 576.254861 85.679394 
L 573.220556 85.679394 
z
" clip-path="url(#pf6e5d578a0)" style="fill: #1f77b4"/>
   </g>
   <g id="patch_176">
    <path d="M 576.254861 455.74 
L 579.289167 455.74 
L 579.289167 85.679394 
L 576.254861 85.679394 
z
" clip-path="url(#pf6e5d578a0)" style="fill: #1f77b4"/>
   </g>
   <g id="patch_177">
    <path d="M 579.289167 455.74 
L 582.323472 455.74 
L 582.323472 85.679394 
L 579.289167 85.679394 
z
" clip-path="url(#pf6e5d578a0)" style="fill: #1f77b4"/>
   </g>
   <g id="patch_178">
    <path d="M 582.323472 455.74 
L 585.357778 455.74 
L 585.357778 455.74 
L 582.323472 455.74 
z
" clip-path="url(#pf6e5d578a0)" style="fill: #1f77b4"/>
   </g>
   <g id="patch_179">
    <path d="M 585.357778 455.74 
L 588.392083 455.74 
L 588.392083 455.74 
L 585.357778 455.74 
z
" clip-path="url(#pf6e5d578a0)" style="fill: #1f77b4"/>
   </g>
   <g id="patch_180">
    <path d="M 588.392083 455.74 
L 591.426389 455.74 
L 591.426389 455.74 
L 588.392083 455.74 
z
" clip-path="url(#pf6e5d578a0)" style="fill: #1f77b4"/>
   </g>
   <g id="patch_181">
    <path d="M 591.426389 455.74 
L 594.460694 455.74 
L 594.460694 455.74 
L 591.426389 455.74 
z
" clip-path="url(#pf6e5d578a0)" style="fill: #1f77b4"/>
   </g>
   <g id="patch_182">
    <path d="M 594.460694 455.74 
L 597.495 455.74 
L 597.495 455.74 
L 594.460694 455.74 
z
" clip-path="url(#pf6e5d578a0)" style="fill: #1f77b4"/>
   </g>
   <g id="patch_183">
    <path d="M 597.495 455.74 
L 600.529306 455.74 
L 600.529306 455.74 
L 597.495 455.74 
z
" clip-path="url(#pf6e5d578a0)" style="fill: #1f77b4"/>
   </g>
   <g id="patch_184">
    <path d="M 600.529306 455.74 
L 603.563611 455.74 
L 603.563611 455.74 
L 600.529306 455.74 
z
" clip-path="url(#pf6e5d578a0)" style="fill: #1f77b4"/>
   </g>
   <g id="patch_185">
    <path d="M 603.563611 455.74 
L 606.597917 455.74 
L 606.597917 455.74 
L 603.563611 455.74 
z
" clip-path="url(#pf6e5d578a0)" style="fill: #1f77b4"/>
   </g>
   <g id="patch_186">
    <path d="M 606.597917 455.74 
L 609.632222 455.74 
L 609.632222 455.74 
L 606.597917 455.74 
z
" clip-path="url(#pf6e5d578a0)" style="fill: #1f77b4"/>
   </g>
   <g id="patch_187">
    <path d="M 609.632222 455.74 
L 612.666528 455.74 
L 612.666528 455.74 
L 609.632222 455.74 
z
" clip-path="url(#pf6e5d578a0)" style="fill: #1f77b4"/>
   </g>
   <g id="patch_188">
    <path d="M 612.666528 455.74 
L 615.700833 455.74 
L 615.700833 455.74 
L 612.666528 455.74 
z
" clip-path="url(#pf6e5d578a0)" style="fill: #1f77b4"/>
   </g>
   <g id="patch_189">
    <path d="M 615.700833 455.74 
L 618.735139 455.74 
L 618.735139 85.679394 
L 615.700833 85.679394 
z
" clip-path="url(#pf6e5d578a0)" style="fill: #1f77b4"/>
   </g>
   <g id="patch_190">
    <path d="M 618.735139 455.74 
L 621.769444 455.74 
L 621.769444 85.679394 
L 618.735139 85.679394 
z
" clip-path="url(#pf6e5d578a0)" style="fill: #1f77b4"/>
   </g>
   <g id="patch_191">
    <path d="M 621.769444 455.74 
L 624.80375 455.74 
L 624.80375 85.679394 
L 621.769444 85.679394 
z
" clip-path="url(#pf6e5d578a0)" style="fill: #1f77b4"/>
   </g>
   <g id="patch_192">
    <path d="M 624.80375 455.74 
L 627.838056 455.74 
L 627.838056 85.679394 
L 624.80375 85.679394 
z
" clip-path="url(#pf6e5d578a0)" style="fill: #1f77b4"/>
   </g>
   <g id="patch_193">
    <path d="M 627.838056 455.74 
L 630.872361 455.74 
L 630.872361 85.679394 
L 627.838056 85.679394 
z
" clip-path="url(#pf6e5d578a0)" style="fill: #1f77b4"/>
   </g>
   <g id="patch_194">
    <path d="M 630.872361 455.74 
L 633.906667 455.74 
L 633.906667 85.679394 
L 630.872361 85.679394 
z
" clip-path="url(#pf6e5d578a0)" style="fill: #1f77b4"/>
   </g>
   <g id="patch_195">
    <path d="M 633.906667 455.74 
L 636.940972 455.74 
L 636.940972 85.679394 
L 633.906667 85.679394 
z
" clip-path="url(#pf6e5d578a0)" style="fill: #1f77b4"/>
   </g>
   <g id="patch_196">
    <path d="M 636.940972 455.74 
L 639.975278 455.74 
L 639.975278 85.679394 
L 636.940972 85.679394 
z
" clip-path="url(#pf6e5d578a0)" style="fill: #1f77b4"/>
   </g>
   <g id="patch_197">
    <path d="M 639.975278 455.74 
L 643.009583 455.74 
L 643.009583 85.679394 
L 639.975278 85.679394 
z
" clip-path="url(#pf6e5d578a0)" style="fill: #1f77b4"/>
   </g>
   <g id="patch_198">
    <path d="M 643.009583 455.74 
L 646.043889 455.74 
L 646.043889 85.679394 
L 643.009583 85.679394 
z
" clip-path="url(#pf6e5d578a0)" style="fill: #1f77b4"/>
   </g>
   <g id="patch_199">
    <path d="M 646.043889 455.74 
L 649.078194 455.74 
L 649.078194 85.679394 
L 646.043889 85.679394 
z
" clip-path="url(#pf6e5d578a0)" style="fill: #1f77b4"/>
   </g>
   <g id="patch_200">
    <path d="M 649.078194 455.74 
L 652.1125 455.74 
L 652.1125 85.679394 
L 649.078194 85.679394 
z
" clip-path="url(#pf6e5d578a0)" style="fill: #1f77b4"/>
   </g>
   <g id="patch_201">
    <path d="M 652.1125 455.74 
L 655.146806 455.74 
L 655.146806 85.679394 
L 652.1125 85.679394 
z
" clip-path="url(#pf6e5d578a0)" style="fill: #1f77b4"/>
   </g>
   <g id="patch_202">
    <path d="M 655.146806 455.74 
L 658.181111 455.74 
L 658.181111 85.679394 
L 655.146806 85.679394 
z
" clip-path="url(#pf6e5d578a0)" style="fill: #1f77b4"/>
   </g>
   <g id="patch_203">
    <path d="M 658.181111 455.74 
L 661.215417 455.74 
L 661.215417 85.679394 
L 658.181111 85.679394 
z
" clip-path="url(#pf6e5d578a0)" style="fill: #1f77b4"/>
   </g>
   <g id="patch_204">
    <path d="M 661.215417 455.74 
L 664.249722 455.74 
L 664.249722 455.74 
L 661.215417 455.74 
z
" clip-path="url(#pf6e5d578a0)" style="fill: #1f77b4"/>
   </g>
   <g id="patch_205">
    <path d="M 664.249722 455.74 
L 667.284028 455.74 
L 667.284028 455.74 
L 664.249722 455.74 
z
" clip-path="url(#pf6e5d578a0)" style="fill: #1f77b4"/>
   </g>
   <g id="patch_206">
    <path d="M 667.284028 455.74 
L 670.318333 455.74 
L 670.318333 455.74 
L 667.284028 455.74 
z
" clip-path="url(#pf6e5d578a0)" style="fill: #1f77b4"/>
   </g>
   <g id="patch_207">
    <path d="M 670.318333 455.74 
L 673.352639 455.74 
L 673.352639 455.74 
L 670.318333 455.74 
z
" clip-path="url(#pf6e5d578a0)" style="fill: #1f77b4"/>
   </g>
   <g id="patch_208">
    <path d="M 673.352639 455.74 
L 676.386944 455.74 
L 676.386944 455.74 
L 673.352639 455.74 
z
" clip-path="url(#pf6e5d578a0)" style="fill: #1f77b4"/>
   </g>
   <g id="patch_209">
    <path d="M 676.386944 455.74 
L 679.42125 455.74 
L 679.42125 455.74 
L 676.386944 455.74 
z
" clip-path="url(#pf6e5d578a0)" style="fill: #1f77b4"/>
   </g>
   <g id="patch_210">
    <path d="M 679.42125 455.74 
L 682.455556 455.74 
L 682.455556 455.74 
L 679.42125 455.74 
z
" clip-path="url(#pf6e5d578a0)" style="fill: #1f77b4"/>
   </g>
   <g id="patch_211">
    <path d="M 682.455556 455.74 
L 685.489861 455.74 
L 685.489861 455.74 
L 682.455556 455.74 
z
" clip-path="url(#pf6e5d578a0)" style="fill: #1f77b4"/>
   </g>
   <g id="patch_212">
    <path d="M 685.489861 455.74 
L 688.524167 455.74 
L 688.524167 85.679394 
L 685.489861 85.679394 
z
" clip-path="url(#pf6e5d578a0)" style="fill: #1f77b4"/>
   </g>
   <g id="patch_213">
    <path d="M 688.524167 455.74 
L 691.558472 455.74 
L 691.558472 85.679394 
L 688.524167 85.679394 
z
" clip-path="url(#pf6e5d578a0)" style="fill: #1f77b4"/>
   </g>
   <g id="patch_214">
    <path d="M 691.558472 455.74 
L 694.592778 455.74 
L 694.592778 85.679394 
L 691.558472 85.679394 
z
" clip-path="url(#pf6e5d578a0)" style="fill: #1f77b4"/>
   </g>
   <g id="patch_215">
    <path d="M 694.592778 455.74 
L 697.627083 455.74 
L 697.627083 85.679394 
L 694.592778 85.679394 
z
" clip-path="url(#pf6e5d578a0)" style="fill: #1f77b4"/>
   </g>
   <g id="patch_216">
    <path d="M 697.627083 455.74 
L 700.661389 455.74 
L 700.661389 85.679394 
L 697.627083 85.679394 
z
" clip-path="url(#pf6e5d578a0)" style="fill: #1f77b4"/>
   </g>
   <g id="patch_217">
    <path d="M 700.661389 455.74 
L 703.695694 455.74 
L 703.695694 85.679394 
L 700.661389 85.679394 
z
" clip-path="url(#pf6e5d578a0)" style="fill: #1f77b4"/>
   </g>
   <g id="patch_218">
    <path d="M 703.695694 455.74 
L 706.73 455.74 
L 706.73 85.679394 
L 703.695694 85.679394 
z
" clip-path="url(#pf6e5d578a0)" style="fill: #1f77b4"/>
   </g>
   <g id="patch_219">
    <path d="M 706.73 455.74 
L 709.764306 455.74 
L 709.764306 85.679394 
L 706.73 85.679394 
z
" clip-path="url(#pf6e5d578a0)" style="fill: #1f77b4"/>
   </g>
   <g id="patch_220">
    <path d="M 709.764306 455.74 
L 712.798611 455.74 
L 712.798611 85.679394 
L 709.764306 85.679394 
z
" clip-path="url(#pf6e5d578a0)" style="fill: #1f77b4"/>
   </g>
   <g id="patch_221">
    <path d="M 712.798611 455.74 
L 715.832917 455.74 
L 715.832917 85.679394 
L 712.798611 85.679394 
z
" clip-path="url(#pf6e5d578a0)" style="fill: #1f77b4"/>
   </g>
   <g id="patch_222">
    <path d="M 715.832917 455.74 
L 718.867222 455.74 
L 718.867222 85.679394 
L 715.832917 85.679394 
z
" clip-path="url(#pf6e5d578a0)" style="fill: #1f77b4"/>
   </g>
   <g id="patch_223">
    <path d="M 718.867222 455.74 
L 721.901528 455.74 
L 721.901528 85.679394 
L 718.867222 85.679394 
z
" clip-path="url(#pf6e5d578a0)" style="fill: #1f77b4"/>
   </g>
   <g id="patch_224">
    <path d="M 721.901528 455.74 
L 724.935833 455.74 
L 724.935833 85.679394 
L 721.901528 85.679394 
z
" clip-path="url(#pf6e5d578a0)" style="fill: #1f77b4"/>
   </g>
   <g id="patch_225">
    <path d="M 724.935833 455.74 
L 727.970139 455.74 
L 727.970139 85.679394 
L 724.935833 85.679394 
z
" clip-path="url(#pf6e5d578a0)" style="fill: #1f77b4"/>
   </g>
   <g id="patch_226">
    <path d="M 727.970139 455.74 
L 731.004444 455.74 
L 731.004444 85.679394 
L 727.970139 85.679394 
z
" clip-path="url(#pf6e5d578a0)" style="fill: #1f77b4"/>
   </g>
   <g id="patch_227">
    <path d="M 731.004444 455.74 
L 734.03875 455.74 
L 734.03875 85.679394 
L 731.004444 85.679394 
z
" clip-path="url(#pf6e5d578a0)" style="fill: #1f77b4"/>
   </g>
   <g id="patch_228">
    <path d="M 734.03875 455.74 
L 737.073056 455.74 
L 737.073056 455.74 
L 734.03875 455.74 
z
" clip-path="url(#pf6e5d578a0)" style="fill: #1f77b4"/>
   </g>
   <g id="patch_229">
    <path d="M 737.073056 455.74 
L 740.107361 455.74 
L 740.107361 455.74 
L 737.073056 455.74 
z
" clip-path="url(#pf6e5d578a0)" style="fill: #1f77b4"/>
   </g>
   <g id="patch_230">
    <path d="M 740.107361 455.74 
L 743.141667 455.74 
L 743.141667 455.74 
L 740.107361 455.74 
z
" clip-path="url(#pf6e5d578a0)" style="fill: #1f77b4"/>
   </g>
   <g id="patch_231">
    <path d="M 743.141667 455.74 
L 746.175972 455.74 
L 746.175972 455.74 
L 743.141667 455.74 
z
" clip-path="url(#pf6e5d578a0)" style="fill: #1f77b4"/>
   </g>
   <g id="patch_232">
    <path d="M 746.175972 455.74 
L 749.210278 455.74 
L 749.210278 455.74 
L 746.175972 455.74 
z
" clip-path="url(#pf6e5d578a0)" style="fill: #1f77b4"/>
   </g>
   <g id="patch_233">
    <path d="M 749.210278 455.74 
L 752.244583 455.74 
L 752.244583 455.74 
L 749.210278 455.74 
z
" clip-path="url(#pf6e5d578a0)" style="fill: #1f77b4"/>
   </g>
   <g id="patch_234">
    <path d="M 752.244583 455.74 
L 755.278889 455.74 
L 755.278889 455.74 
L 752.244583 455.74 
z
" clip-path="url(#pf6e5d578a0)" style="fill: #1f77b4"/>
   </g>
   <g id="patch_235">
    <path d="M 755.278889 455.74 
L 758.313194 455.74 
L 758.313194 85.679394 
L 755.278889 85.679394 
z
" clip-path="url(#pf6e5d578a0)" style="fill: #1f77b4"/>
   </g>
   <g id="patch_236">
    <path d="M 758.313194 455.74 
L 761.3475 455.74 
L 761.3475 85.679394 
L 758.313194 85.679394 
z
" clip-path="url(#pf6e5d578a0)" style="fill: #1f77b4"/>
   </g>
   <g id="patch_237">
    <path d="M 761.3475 455.74 
L 764.381806 455.74 
L 764.381806 85.679394 
L 761.3475 85.679394 
z
" clip-path="url(#pf6e5d578a0)" style="fill: #1f77b4"/>
   </g>
   <g id="patch_238">
    <path d="M 764.381806 455.74 
L 767.416111 455.74 
L 767.416111 85.679394 
L 764.381806 85.679394 
z
" clip-path="url(#pf6e5d578a0)" style="fill: #1f77b4"/>
   </g>
   <g id="patch_239">
    <path d="M 767.416111 455.74 
L 770.450417 455.74 
L 770.450417 85.679394 
L 767.416111 85.679394 
z
" clip-path="url(#pf6e5d578a0)" style="fill: #1f77b4"/>
   </g>
   <g id="patch_240">
    <path d="M 770.450417 455.74 
L 773.484722 455.74 
L 773.484722 85.679394 
L 770.450417 85.679394 
z
" clip-path="url(#pf6e5d578a0)" style="fill: #1f77b4"/>
   </g>
   <g id="patch_241">
    <path d="M 773.484722 455.74 
L 776.519028 455.74 
L 776.519028 85.679394 
L 773.484722 85.679394 
z
" clip-path="url(#pf6e5d578a0)" style="fill: #1f77b4"/>
   </g>
   <g id="patch_242">
    <path d="M 776.519028 455.74 
L 779.553333 455.74 
L 779.553333 85.679394 
L 776.519028 85.679394 
z
" clip-path="url(#pf6e5d578a0)" style="fill: #1f77b4"/>
   </g>
   <g id="patch_243">
    <path d="M 779.553333 455.74 
L 782.587639 455.74 
L 782.587639 85.679394 
L 779.553333 85.679394 
z
" clip-path="url(#pf6e5d578a0)" style="fill: #1f77b4"/>
   </g>
   <g id="patch_244">
    <path d="M 782.587639 455.74 
L 785.621944 455.74 
L 785.621944 85.679394 
L 782.587639 85.679394 
z
" clip-path="url(#pf6e5d578a0)" style="fill: #1f77b4"/>
   </g>
   <g id="patch_245">
    <path d="M 785.621944 455.74 
L 788.65625 455.74 
L 788.65625 85.679394 
L 785.621944 85.679394 
z
" clip-path="url(#pf6e5d578a0)" style="fill: #1f77b4"/>
   </g>
   <g id="patch_246">
    <path d="M 788.65625 455.74 
L 791.690556 455.74 
L 791.690556 85.679394 
L 788.65625 85.679394 
z
" clip-path="url(#pf6e5d578a0)" style="fill: #1f77b4"/>
   </g>
   <g id="patch_247">
    <path d="M 791.690556 455.74 
L 794.724861 455.74 
L 794.724861 85.679394 
L 791.690556 85.679394 
z
" clip-path="url(#pf6e5d578a0)" style="fill: #1f77b4"/>
   </g>
   <g id="patch_248">
    <path d="M 794.724861 455.74 
L 797.759167 455.74 
L 797.759167 85.679394 
L 794.724861 85.679394 
z
" clip-path="url(#pf6e5d578a0)" style="fill: #1f77b4"/>
   </g>
   <g id="patch_249">
    <path d="M 797.759167 455.74 
L 800.793472 455.74 
L 800.793472 85.679394 
L 797.759167 85.679394 
z
" clip-path="url(#pf6e5d578a0)" style="fill: #1f77b4"/>
   </g>
   <g id="patch_250">
    <path d="M 800.793472 455.74 
L 803.827778 455.74 
L 803.827778 85.679394 
L 800.793472 85.679394 
z
" clip-path="url(#pf6e5d578a0)" style="fill: #1f77b4"/>
   </g>
   <g id="patch_251">
    <path d="M 803.827778 455.74 
L 806.862083 455.74 
L 806.862083 85.679394 
L 803.827778 85.679394 
z
" clip-path="url(#pf6e5d578a0)" style="fill: #1f77b4"/>
   </g>
   <g id="patch_252">
    <path d="M 806.862083 455.74 
L 809.896389 455.74 
L 809.896389 85.679394 
L 806.862083 85.679394 
z
" clip-path="url(#pf6e5d578a0)" style="fill: #1f77b4"/>
   </g>
   <g id="patch_253">
    <path d="M 809.896389 455.74 
L 812.930694 455.74 
L 812.930694 455.74 
L 809.896389 455.74 
z
" clip-path="url(#pf6e5d578a0)" style="fill: #1f77b4"/>
   </g>
   <g id="patch_254">
    <path d="M 812.930694 455.74 
L 815.965 455.74 
L 815.965 455.74 
L 812.930694 455.74 
z
" clip-path="url(#pf6e5d578a0)" style="fill: #1f77b4"/>
   </g>
   <g id="patch_255">
    <path d="M 815.965 455.74 
L 818.999306 455.74 
L 818.999306 455.74 
L 815.965 455.74 
z
" clip-path="url(#pf6e5d578a0)" style="fill: #1f77b4"/>
   </g>
   <g id="patch_256">
    <path d="M 818.999306 455.74 
L 822.033611 455.74 
L 822.033611 455.74 
L 818.999306 455.74 
z
" clip-path="url(#pf6e5d578a0)" style="fill: #1f77b4"/>
   </g>
   <g id="patch_257">
    <path d="M 822.033611 455.74 
L 825.067917 455.74 
L 825.067917 455.74 
L 822.033611 455.74 
z
" clip-path="url(#pf6e5d578a0)" style="fill: #1f77b4"/>
   </g>
   <g id="patch_258">
    <path d="M 825.067917 455.74 
L 828.102222 455.74 
L 828.102222 85.679394 
L 825.067917 85.679394 
z
" clip-path="url(#pf6e5d578a0)" style="fill: #1f77b4"/>
   </g>
   <g id="patch_259">
    <path d="M 828.102222 455.74 
L 831.136528 455.74 
L 831.136528 85.679394 
L 828.102222 85.679394 
z
" clip-path="url(#pf6e5d578a0)" style="fill: #1f77b4"/>
   </g>
   <g id="patch_260">
    <path d="M 831.136528 455.74 
L 834.170833 455.74 
L 834.170833 85.679394 
L 831.136528 85.679394 
z
" clip-path="url(#pf6e5d578a0)" style="fill: #1f77b4"/>
   </g>
   <g id="patch_261">
    <path d="M 834.170833 455.74 
L 837.205139 455.74 
L 837.205139 85.679394 
L 834.170833 85.679394 
z
" clip-path="url(#pf6e5d578a0)" style="fill: #1f77b4"/>
   </g>
   <g id="patch_262">
    <path d="M 837.205139 455.74 
L 840.239444 455.74 
L 840.239444 85.679394 
L 837.205139 85.679394 
z
" clip-path="url(#pf6e5d578a0)" style="fill: #1f77b4"/>
   </g>
   <g id="patch_263">
    <path d="M 840.239444 455.74 
L 843.27375 455.74 
L 843.27375 85.679394 
L 840.239444 85.679394 
z
" clip-path="url(#pf6e5d578a0)" style="fill: #1f77b4"/>
   </g>
   <g id="patch_264">
    <path d="M 843.27375 455.74 
L 846.308056 455.74 
L 846.308056 85.679394 
L 843.27375 85.679394 
z
" clip-path="url(#pf6e5d578a0)" style="fill: #1f77b4"/>
   </g>
   <g id="patch_265">
    <path d="M 846.308056 455.74 
L 849.342361 455.74 
L 849.342361 85.679394 
L 846.308056 85.679394 
z
" clip-path="url(#pf6e5d578a0)" style="fill: #1f77b4"/>
   </g>
   <g id="patch_266">
    <path d="M 849.342361 455.74 
L 852.376667 455.74 
L 852.376667 85.679394 
L 849.342361 85.679394 
z
" clip-path="url(#pf6e5d578a0)" style="fill: #1f77b4"/>
   </g>
   <g id="patch_267">
    <path d="M 852.376667 455.74 
L 855.410972 455.74 
L 855.410972 85.679394 
L 852.376667 85.679394 
z
" clip-path="url(#pf6e5d578a0)" style="fill: #1f77b4"/>
   </g>
   <g id="patch_268">
    <path d="M 855.410972 455.74 
L 858.445278 455.74 
L 858.445278 85.679394 
L 855.410972 85.679394 
z
" clip-path="url(#pf6e5d578a0)" style="fill: #1f77b4"/>
   </g>
   <g id="patch_269">
    <path d="M 858.445278 455.74 
L 861.479583 455.74 
L 861.479583 85.679394 
L 858.445278 85.679394 
z
" clip-path="url(#pf6e5d578a0)" style="fill: #1f77b4"/>
   </g>
   <g id="patch_270">
    <path d="M 861.479583 455.74 
L 864.513889 455.74 
L 864.513889 85.679394 
L 861.479583 85.679394 
z
" clip-path="url(#pf6e5d578a0)" style="fill: #1f77b4"/>
   </g>
   <g id="patch_271">
    <path d="M 864.513889 455.74 
L 867.548194 455.74 
L 867.548194 85.679394 
L 864.513889 85.679394 
z
" clip-path="url(#pf6e5d578a0)" style="fill: #1f77b4"/>
   </g>
   <g id="patch_272">
    <path d="M 867.548194 455.74 
L 870.5825 455.74 
L 870.5825 85.679394 
L 867.548194 85.679394 
z
" clip-path="url(#pf6e5d578a0)" style="fill: #1f77b4"/>
   </g>
   <g id="patch_273">
    <path d="M 870.5825 455.74 
L 873.616806 455.74 
L 873.616806 85.679394 
L 870.5825 85.679394 
z
" clip-path="url(#pf6e5d578a0)" style="fill: #1f77b4"/>
   </g>
   <g id="patch_274">
    <path d="M 873.616806 455.74 
L 876.651111 455.74 
L 876.651111 85.679394 
L 873.616806 85.679394 
z
" clip-path="url(#pf6e5d578a0)" style="fill: #1f77b4"/>
   </g>
   <g id="patch_275">
    <path d="M 876.651111 455.74 
L 879.685417 455.74 
L 879.685417 85.679394 
L 876.651111 85.679394 
z
" clip-path="url(#pf6e5d578a0)" style="fill: #1f77b4"/>
   </g>
   <g id="patch_276">
    <path d="M 879.685417 455.74 
L 882.719722 455.74 
L 882.719722 85.679394 
L 879.685417 85.679394 
z
" clip-path="url(#pf6e5d578a0)" style="fill: #1f77b4"/>
   </g>
   <g id="patch_277">
    <path d="M 882.719722 455.74 
L 885.754028 455.74 
L 885.754028 455.74 
L 882.719722 455.74 
z
" clip-path="url(#pf6e5d578a0)" style="fill: #1f77b4"/>
   </g>
   <g id="patch_278">
    <path d="M 885.754028 455.74 
L 888.788333 455.74 
L 888.788333 455.74 
L 885.754028 455.74 
z
" clip-path="url(#pf6e5d578a0)" style="fill: #1f77b4"/>
   </g>
   <g id="patch_279">
    <path d="M 888.788333 455.74 
L 891.822639 455.74 
L 891.822639 455.74 
L 888.788333 455.74 
z
" clip-path="url(#pf6e5d578a0)" style="fill: #1f77b4"/>
   </g>
   <g id="patch_280">
    <path d="M 891.822639 455.74 
L 894.856944 455.74 
L 894.856944 455.74 
L 891.822639 455.74 
z
" clip-path="url(#pf6e5d578a0)" style="fill: #1f77b4"/>
   </g>
   <g id="patch_281">
    <path d="M 894.856944 455.74 
L 897.89125 455.74 
L 897.89125 455.74 
L 894.856944 455.74 
z
" clip-path="url(#pf6e5d578a0)" style="fill: #1f77b4"/>
   </g>
   <g id="patch_282">
    <path d="M 897.89125 455.74 
L 900.925556 455.74 
L 900.925556 455.739989 
L 897.89125 455.739989 
z
" clip-path="url(#pf6e5d578a0)" style="fill: #1f77b4"/>
   </g>
   <g id="patch_283">
    <path d="M 900.925556 455.74 
L 903.959861 455.74 
L 903.959861 85.679394 
L 900.925556 85.679394 
z
" clip-path="url(#pf6e5d578a0)" style="fill: #1f77b4"/>
   </g>
   <g id="patch_284">
    <path d="M 903.959861 455.74 
L 906.994167 455.74 
L 906.994167 85.679394 
L 903.959861 85.679394 
z
" clip-path="url(#pf6e5d578a0)" style="fill: #1f77b4"/>
   </g>
   <g id="patch_285">
    <path d="M 906.994167 455.74 
L 910.028472 455.74 
L 910.028472 85.679394 
L 906.994167 85.679394 
z
" clip-path="url(#pf6e5d578a0)" style="fill: #1f77b4"/>
   </g>
   <g id="patch_286">
    <path d="M 910.028472 455.74 
L 913.062778 455.74 
L 913.062778 85.679394 
L 910.028472 85.679394 
z
" clip-path="url(#pf6e5d578a0)" style="fill: #1f77b4"/>
   </g>
   <g id="patch_287">
    <path d="M 913.062778 455.74 
L 916.097083 455.74 
L 916.097083 85.679394 
L 913.062778 85.679394 
z
" clip-path="url(#pf6e5d578a0)" style="fill: #1f77b4"/>
   </g>
   <g id="patch_288">
    <path d="M 916.097083 455.74 
L 919.131389 455.74 
L 919.131389 85.679394 
L 916.097083 85.679394 
z
" clip-path="url(#pf6e5d578a0)" style="fill: #1f77b4"/>
   </g>
   <g id="patch_289">
    <path d="M 919.131389 455.74 
L 922.165694 455.74 
L 922.165694 85.679394 
L 919.131389 85.679394 
z
" clip-path="url(#pf6e5d578a0)" style="fill: #1f77b4"/>
   </g>
   <g id="patch_290">
    <path d="M 922.165694 455.74 
L 925.2 455.74 
L 925.2 85.679394 
L 922.165694 85.679394 
z
" clip-path="url(#pf6e5d578a0)" style="fill: #1f77b4"/>
   </g>
   <g id="matplotlib.axis_1">
    <g id="xtick_1">
     <g id="line2d_1">
      <defs>
       <path id="mab553691e3" d="M 0 0 
L 0 3.5 
" style="stroke: #000000; stroke-width: 0.8"/>
      </defs>
      <g>
       <use xlink:href="#mab553691e3" x="87.731667" y="455.74" style="stroke: #000000; stroke-width: 0.8"/>
      </g>
     </g>
     <g id="text_1">
      <!-- 1 -->
      <g transform="translate(90.491042 469.1025)rotate(-90)scale(0.1 -0.1)">
       <defs>
        <path id="DejaVuSans-31" d="M 794 531 
L 1825 531 
L 1825 4091 
L 703 3866 
L 703 4441 
L 1819 4666 
L 2450 4666 
L 2450 531 
L 3481 531 
L 3481 0 
L 794 0 
L 794 531 
z
" transform="scale(0.015625)"/>
       </defs>
       <use xlink:href="#DejaVuSans-31"/>
      </g>
     </g>
    </g>
    <g id="xtick_2">
     <g id="line2d_2">
      <g>
       <use xlink:href="#mab553691e3" x="160.555" y="455.74" style="stroke: #000000; stroke-width: 0.8"/>
      </g>
     </g>
     <g id="text_2">
      <!-- 2 -->
      <g transform="translate(163.314375 469.1025)rotate(-90)scale(0.1 -0.1)">
       <defs>
        <path id="DejaVuSans-32" d="M 1228 531 
L 3431 531 
L 3431 0 
L 469 0 
L 469 531 
Q 828 903 1448 1529 
Q 2069 2156 2228 2338 
Q 2531 2678 2651 2914 
Q 2772 3150 2772 3378 
Q 2772 3750 2511 3984 
Q 2250 4219 1831 4219 
Q 1534 4219 1204 4116 
Q 875 4013 500 3803 
L 500 4441 
Q 881 4594 1212 4672 
Q 1544 4750 1819 4750 
Q 2544 4750 2975 4387 
Q 3406 4025 3406 3419 
Q 3406 3131 3298 2873 
Q 3191 2616 2906 2266 
Q 2828 2175 2409 1742 
Q 1991 1309 1228 531 
z
" transform="scale(0.015625)"/>
       </defs>
       <use xlink:href="#DejaVuSans-32"/>
      </g>
     </g>
    </g>
    <g id="xtick_3">
     <g id="line2d_3">
      <g>
       <use xlink:href="#mab553691e3" x="233.378333" y="455.74" style="stroke: #000000; stroke-width: 0.8"/>
      </g>
     </g>
     <g id="text_3">
      <!-- 3 -->
      <g transform="translate(236.137708 469.1025)rotate(-90)scale(0.1 -0.1)">
       <defs>
        <path id="DejaVuSans-33" d="M 2597 2516 
Q 3050 2419 3304 2112 
Q 3559 1806 3559 1356 
Q 3559 666 3084 287 
Q 2609 -91 1734 -91 
Q 1441 -91 1130 -33 
Q 819 25 488 141 
L 488 750 
Q 750 597 1062 519 
Q 1375 441 1716 441 
Q 2309 441 2620 675 
Q 2931 909 2931 1356 
Q 2931 1769 2642 2001 
Q 2353 2234 1838 2234 
L 1294 2234 
L 1294 2753 
L 1863 2753 
Q 2328 2753 2575 2939 
Q 2822 3125 2822 3475 
Q 2822 3834 2567 4026 
Q 2313 4219 1838 4219 
Q 1578 4219 1281 4162 
Q 984 4106 628 3988 
L 628 4550 
Q 988 4650 1302 4700 
Q 1616 4750 1894 4750 
Q 2613 4750 3031 4423 
Q 3450 4097 3450 3541 
Q 3450 3153 3228 2886 
Q 3006 2619 2597 2516 
z
" transform="scale(0.015625)"/>
       </defs>
       <use xlink:href="#DejaVuSans-33"/>
      </g>
     </g>
    </g>
    <g id="xtick_4">
     <g id="line2d_4">
      <g>
       <use xlink:href="#mab553691e3" x="306.201667" y="455.74" style="stroke: #000000; stroke-width: 0.8"/>
      </g>
     </g>
     <g id="text_4">
      <!-- 4 -->
      <g transform="translate(308.961042 469.1025)rotate(-90)scale(0.1 -0.1)">
       <defs>
        <path id="DejaVuSans-34" d="M 2419 4116 
L 825 1625 
L 2419 1625 
L 2419 4116 
z
M 2253 4666 
L 3047 4666 
L 3047 1625 
L 3713 1625 
L 3713 1100 
L 3047 1100 
L 3047 0 
L 2419 0 
L 2419 1100 
L 313 1100 
L 313 1709 
L 2253 4666 
z
" transform="scale(0.015625)"/>
       </defs>
       <use xlink:href="#DejaVuSans-34"/>
      </g>
     </g>
    </g>
    <g id="xtick_5">
     <g id="line2d_5">
      <g>
       <use xlink:href="#mab553691e3" x="379.025" y="455.74" style="stroke: #000000; stroke-width: 0.8"/>
      </g>
     </g>
     <g id="text_5">
      <!-- 5 -->
      <g transform="translate(381.784375 469.1025)rotate(-90)scale(0.1 -0.1)">
       <defs>
        <path id="DejaVuSans-35" d="M 691 4666 
L 3169 4666 
L 3169 4134 
L 1269 4134 
L 1269 2991 
Q 1406 3038 1543 3061 
Q 1681 3084 1819 3084 
Q 2600 3084 3056 2656 
Q 3513 2228 3513 1497 
Q 3513 744 3044 326 
Q 2575 -91 1722 -91 
Q 1428 -91 1123 -41 
Q 819 9 494 109 
L 494 744 
Q 775 591 1075 516 
Q 1375 441 1709 441 
Q 2250 441 2565 725 
Q 2881 1009 2881 1497 
Q 2881 1984 2565 2268 
Q 2250 2553 1709 2553 
Q 1456 2553 1204 2497 
Q 953 2441 691 2322 
L 691 4666 
z
" transform="scale(0.015625)"/>
       </defs>
       <use xlink:href="#DejaVuSans-35"/>
      </g>
     </g>
    </g>
    <g id="xtick_6">
     <g id="line2d_6">
      <g>
       <use xlink:href="#mab553691e3" x="451.848333" y="455.74" style="stroke: #000000; stroke-width: 0.8"/>
      </g>
     </g>
     <g id="text_6">
      <!-- 6 -->
      <g transform="translate(454.607708 469.1025)rotate(-90)scale(0.1 -0.1)">
       <defs>
        <path id="DejaVuSans-36" d="M 2113 2584 
Q 1688 2584 1439 2293 
Q 1191 2003 1191 1497 
Q 1191 994 1439 701 
Q 1688 409 2113 409 
Q 2538 409 2786 701 
Q 3034 994 3034 1497 
Q 3034 2003 2786 2293 
Q 2538 2584 2113 2584 
z
M 3366 4563 
L 3366 3988 
Q 3128 4100 2886 4159 
Q 2644 4219 2406 4219 
Q 1781 4219 1451 3797 
Q 1122 3375 1075 2522 
Q 1259 2794 1537 2939 
Q 1816 3084 2150 3084 
Q 2853 3084 3261 2657 
Q 3669 2231 3669 1497 
Q 3669 778 3244 343 
Q 2819 -91 2113 -91 
Q 1303 -91 875 529 
Q 447 1150 447 2328 
Q 447 3434 972 4092 
Q 1497 4750 2381 4750 
Q 2619 4750 2861 4703 
Q 3103 4656 3366 4563 
z
" transform="scale(0.015625)"/>
       </defs>
       <use xlink:href="#DejaVuSans-36"/>
      </g>
     </g>
    </g>
    <g id="xtick_7">
     <g id="line2d_7">
      <g>
       <use xlink:href="#mab553691e3" x="524.671667" y="455.74" style="stroke: #000000; stroke-width: 0.8"/>
      </g>
     </g>
     <g id="text_7">
      <!-- 7 -->
      <g transform="translate(527.431042 469.1025)rotate(-90)scale(0.1 -0.1)">
       <defs>
        <path id="DejaVuSans-37" d="M 525 4666 
L 3525 4666 
L 3525 4397 
L 1831 0 
L 1172 0 
L 2766 4134 
L 525 4134 
L 525 4666 
z
" transform="scale(0.015625)"/>
       </defs>
       <use xlink:href="#DejaVuSans-37"/>
      </g>
     </g>
    </g>
    <g id="xtick_8">
     <g id="line2d_8">
      <g>
       <use xlink:href="#mab553691e3" x="597.495" y="455.74" style="stroke: #000000; stroke-width: 0.8"/>
      </g>
     </g>
     <g id="text_8">
      <!-- 8 -->
      <g transform="translate(600.254375 469.1025)rotate(-90)scale(0.1 -0.1)">
       <defs>
        <path id="DejaVuSans-38" d="M 2034 2216 
Q 1584 2216 1326 1975 
Q 1069 1734 1069 1313 
Q 1069 891 1326 650 
Q 1584 409 2034 409 
Q 2484 409 2743 651 
Q 3003 894 3003 1313 
Q 3003 1734 2745 1975 
Q 2488 2216 2034 2216 
z
M 1403 2484 
Q 997 2584 770 2862 
Q 544 3141 544 3541 
Q 544 4100 942 4425 
Q 1341 4750 2034 4750 
Q 2731 4750 3128 4425 
Q 3525 4100 3525 3541 
Q 3525 3141 3298 2862 
Q 3072 2584 2669 2484 
Q 3125 2378 3379 2068 
Q 3634 1759 3634 1313 
Q 3634 634 3220 271 
Q 2806 -91 2034 -91 
Q 1263 -91 848 271 
Q 434 634 434 1313 
Q 434 1759 690 2068 
Q 947 2378 1403 2484 
z
M 1172 3481 
Q 1172 3119 1398 2916 
Q 1625 2713 2034 2713 
Q 2441 2713 2670 2916 
Q 2900 3119 2900 3481 
Q 2900 3844 2670 4047 
Q 2441 4250 2034 4250 
Q 1625 4250 1398 4047 
Q 1172 3844 1172 3481 
z
" transform="scale(0.015625)"/>
       </defs>
       <use xlink:href="#DejaVuSans-38"/>
      </g>
     </g>
    </g>
    <g id="xtick_9">
     <g id="line2d_9">
      <g>
       <use xlink:href="#mab553691e3" x="670.318333" y="455.74" style="stroke: #000000; stroke-width: 0.8"/>
      </g>
     </g>
     <g id="text_9">
      <!-- 9 -->
      <g transform="translate(673.077708 469.1025)rotate(-90)scale(0.1 -0.1)">
       <defs>
        <path id="DejaVuSans-39" d="M 703 97 
L 703 672 
Q 941 559 1184 500 
Q 1428 441 1663 441 
Q 2288 441 2617 861 
Q 2947 1281 2994 2138 
Q 2813 1869 2534 1725 
Q 2256 1581 1919 1581 
Q 1219 1581 811 2004 
Q 403 2428 403 3163 
Q 403 3881 828 4315 
Q 1253 4750 1959 4750 
Q 2769 4750 3195 4129 
Q 3622 3509 3622 2328 
Q 3622 1225 3098 567 
Q 2575 -91 1691 -91 
Q 1453 -91 1209 -44 
Q 966 3 703 97 
z
M 1959 2075 
Q 2384 2075 2632 2365 
Q 2881 2656 2881 3163 
Q 2881 3666 2632 3958 
Q 2384 4250 1959 4250 
Q 1534 4250 1286 3958 
Q 1038 3666 1038 3163 
Q 1038 2656 1286 2365 
Q 1534 2075 1959 2075 
z
" transform="scale(0.015625)"/>
       </defs>
       <use xlink:href="#DejaVuSans-39"/>
      </g>
     </g>
    </g>
    <g id="xtick_10">
     <g id="line2d_10">
      <g>
       <use xlink:href="#mab553691e3" x="743.141667" y="455.74" style="stroke: #000000; stroke-width: 0.8"/>
      </g>
     </g>
     <g id="text_10">
      <!-- 10 -->
      <g transform="translate(745.901042 475.465)rotate(-90)scale(0.1 -0.1)">
       <defs>
        <path id="DejaVuSans-30" d="M 2034 4250 
Q 1547 4250 1301 3770 
Q 1056 3291 1056 2328 
Q 1056 1369 1301 889 
Q 1547 409 2034 409 
Q 2525 409 2770 889 
Q 3016 1369 3016 2328 
Q 3016 3291 2770 3770 
Q 2525 4250 2034 4250 
z
M 2034 4750 
Q 2819 4750 3233 4129 
Q 3647 3509 3647 2328 
Q 3647 1150 3233 529 
Q 2819 -91 2034 -91 
Q 1250 -91 836 529 
Q 422 1150 422 2328 
Q 422 3509 836 4129 
Q 1250 4750 2034 4750 
z
" transform="scale(0.015625)"/>
       </defs>
       <use xlink:href="#DejaVuSans-31"/>
       <use xlink:href="#DejaVuSans-30" x="63.623047"/>
      </g>
     </g>
    </g>
    <g id="xtick_11">
     <g id="line2d_11">
      <g>
       <use xlink:href="#mab553691e3" x="815.965" y="455.74" style="stroke: #000000; stroke-width: 0.8"/>
      </g>
     </g>
     <g id="text_11">
      <!-- 11 -->
      <g transform="translate(818.724375 475.465)rotate(-90)scale(0.1 -0.1)">
       <use xlink:href="#DejaVuSans-31"/>
       <use xlink:href="#DejaVuSans-31" x="63.623047"/>
      </g>
     </g>
    </g>
    <g id="xtick_12">
     <g id="line2d_12">
      <g>
       <use xlink:href="#mab553691e3" x="888.788333" y="455.74" style="stroke: #000000; stroke-width: 0.8"/>
      </g>
     </g>
     <g id="text_12">
      <!-- 12 -->
      <g transform="translate(891.547708 475.465)rotate(-90)scale(0.1 -0.1)">
       <use xlink:href="#DejaVuSans-31"/>
       <use xlink:href="#DejaVuSans-32" x="63.623047"/>
      </g>
     </g>
    </g>
    <g id="text_13">
     <!-- Typical days -->
     <g transform="translate(445.715312 490.102812)scale(0.14 -0.14)">
      <defs>
       <path id="DejaVuSans-54" d="M -19 4666 
L 3928 4666 
L 3928 4134 
L 2272 4134 
L 2272 0 
L 1638 0 
L 1638 4134 
L -19 4134 
L -19 4666 
z
" transform="scale(0.015625)"/>
       <path id="DejaVuSans-79" d="M 2059 -325 
Q 1816 -950 1584 -1140 
Q 1353 -1331 966 -1331 
L 506 -1331 
L 506 -850 
L 844 -850 
Q 1081 -850 1212 -737 
Q 1344 -625 1503 -206 
L 1606 56 
L 191 3500 
L 800 3500 
L 1894 763 
L 2988 3500 
L 3597 3500 
L 2059 -325 
z
" transform="scale(0.015625)"/>
       <path id="DejaVuSans-70" d="M 1159 525 
L 1159 -1331 
L 581 -1331 
L 581 3500 
L 1159 3500 
L 1159 2969 
Q 1341 3281 1617 3432 
Q 1894 3584 2278 3584 
Q 2916 3584 3314 3078 
Q 3713 2572 3713 1747 
Q 3713 922 3314 415 
Q 2916 -91 2278 -91 
Q 1894 -91 1617 61 
Q 1341 213 1159 525 
z
M 3116 1747 
Q 3116 2381 2855 2742 
Q 2594 3103 2138 3103 
Q 1681 3103 1420 2742 
Q 1159 2381 1159 1747 
Q 1159 1113 1420 752 
Q 1681 391 2138 391 
Q 2594 391 2855 752 
Q 3116 1113 3116 1747 
z
" transform="scale(0.015625)"/>
       <path id="DejaVuSans-69" d="M 603 3500 
L 1178 3500 
L 1178 0 
L 603 0 
L 603 3500 
z
M 603 4863 
L 1178 4863 
L 1178 4134 
L 603 4134 
L 603 4863 
z
" transform="scale(0.015625)"/>
       <path id="DejaVuSans-63" d="M 3122 3366 
L 3122 2828 
Q 2878 2963 2633 3030 
Q 2388 3097 2138 3097 
Q 1578 3097 1268 2742 
Q 959 2388 959 1747 
Q 959 1106 1268 751 
Q 1578 397 2138 397 
Q 2388 397 2633 464 
Q 2878 531 3122 666 
L 3122 134 
Q 2881 22 2623 -34 
Q 2366 -91 2075 -91 
Q 1284 -91 818 406 
Q 353 903 353 1747 
Q 353 2603 823 3093 
Q 1294 3584 2113 3584 
Q 2378 3584 2631 3529 
Q 2884 3475 3122 3366 
z
" transform="scale(0.015625)"/>
       <path id="DejaVuSans-61" d="M 2194 1759 
Q 1497 1759 1228 1600 
Q 959 1441 959 1056 
Q 959 750 1161 570 
Q 1363 391 1709 391 
Q 2188 391 2477 730 
Q 2766 1069 2766 1631 
L 2766 1759 
L 2194 1759 
z
M 3341 1997 
L 3341 0 
L 2766 0 
L 2766 531 
Q 2569 213 2275 61 
Q 1981 -91 1556 -91 
Q 1019 -91 701 211 
Q 384 513 384 1019 
Q 384 1609 779 1909 
Q 1175 2209 1959 2209 
L 2766 2209 
L 2766 2266 
Q 2766 2663 2505 2880 
Q 2244 3097 1772 3097 
Q 1472 3097 1187 3025 
Q 903 2953 641 2809 
L 641 3341 
Q 956 3463 1253 3523 
Q 1550 3584 1831 3584 
Q 2591 3584 2966 3190 
Q 3341 2797 3341 1997 
z
" transform="scale(0.015625)"/>
       <path id="DejaVuSans-6c" d="M 603 4863 
L 1178 4863 
L 1178 0 
L 603 0 
L 603 4863 
z
" transform="scale(0.015625)"/>
       <path id="DejaVuSans-20" transform="scale(0.015625)"/>
       <path id="DejaVuSans-64" d="M 2906 2969 
L 2906 4863 
L 3481 4863 
L 3481 0 
L 2906 0 
L 2906 525 
Q 2725 213 2448 61 
Q 2172 -91 1784 -91 
Q 1150 -91 751 415 
Q 353 922 353 1747 
Q 353 2572 751 3078 
Q 1150 3584 1784 3584 
Q 2172 3584 2448 3432 
Q 2725 3281 2906 2969 
z
M 947 1747 
Q 947 1113 1208 752 
Q 1469 391 1925 391 
Q 2381 391 2643 752 
Q 2906 1113 2906 1747 
Q 2906 2381 2643 2742 
Q 2381 3103 1925 3103 
Q 1469 3103 1208 2742 
Q 947 2381 947 1747 
z
" transform="scale(0.015625)"/>
       <path id="DejaVuSans-73" d="M 2834 3397 
L 2834 2853 
Q 2591 2978 2328 3040 
Q 2066 3103 1784 3103 
Q 1356 3103 1142 2972 
Q 928 2841 928 2578 
Q 928 2378 1081 2264 
Q 1234 2150 1697 2047 
L 1894 2003 
Q 2506 1872 2764 1633 
Q 3022 1394 3022 966 
Q 3022 478 2636 193 
Q 2250 -91 1575 -91 
Q 1294 -91 989 -36 
Q 684 19 347 128 
L 347 722 
Q 666 556 975 473 
Q 1284 391 1588 391 
Q 1994 391 2212 530 
Q 2431 669 2431 922 
Q 2431 1156 2273 1281 
Q 2116 1406 1581 1522 
L 1381 1569 
Q 847 1681 609 1914 
Q 372 2147 372 2553 
Q 372 3047 722 3315 
Q 1072 3584 1716 3584 
Q 2034 3584 2315 3537 
Q 2597 3491 2834 3397 
z
" transform="scale(0.015625)"/>
      </defs>
      <use xlink:href="#DejaVuSans-54"/>
      <use xlink:href="#DejaVuSans-79" x="45.458984"/>
      <use xlink:href="#DejaVuSans-70" x="104.638672"/>
      <use xlink:href="#DejaVuSans-69" x="168.115234"/>
      <use xlink:href="#DejaVuSans-63" x="195.898438"/>
      <use xlink:href="#DejaVuSans-61" x="250.878906"/>
      <use xlink:href="#DejaVuSans-6c" x="312.158203"/>
      <use xlink:href="#DejaVuSans-20" x="339.941406"/>
      <use xlink:href="#DejaVuSans-64" x="371.728516"/>
      <use xlink:href="#DejaVuSans-61" x="435.205078"/>
      <use xlink:href="#DejaVuSans-79" x="496.484375"/>
      <use xlink:href="#DejaVuSans-73" x="555.664062"/>
     </g>
    </g>
   </g>
   <g id="matplotlib.axis_2">
    <g id="ytick_1">
     <g id="line2d_13">
      <defs>
       <path id="mc891bfe43e" d="M 0 0 
L -3.5 0 
" style="stroke: #000000; stroke-width: 0.8"/>
      </defs>
      <g>
       <use xlink:href="#mc891bfe43e" x="51.32" y="455.74" style="stroke: #000000; stroke-width: 0.8"/>
      </g>
     </g>
     <g id="text_14">
      <!-- 0.0 -->
      <g transform="translate(28.416875 459.539219)scale(0.1 -0.1)">
       <defs>
        <path id="DejaVuSans-2e" d="M 684 794 
L 1344 794 
L 1344 0 
L 684 0 
L 684 794 
z
" transform="scale(0.015625)"/>
       </defs>
       <use xlink:href="#DejaVuSans-30"/>
       <use xlink:href="#DejaVuSans-2e" x="63.623047"/>
       <use xlink:href="#DejaVuSans-30" x="95.410156"/>
      </g>
     </g>
    </g>
    <g id="ytick_2">
     <g id="line2d_14">
      <g>
       <use xlink:href="#mc891bfe43e" x="51.32" y="363.224848" style="stroke: #000000; stroke-width: 0.8"/>
      </g>
     </g>
     <g id="text_15">
      <!-- 0.5 -->
      <g transform="translate(28.416875 367.024067)scale(0.1 -0.1)">
       <use xlink:href="#DejaVuSans-30"/>
       <use xlink:href="#DejaVuSans-2e" x="63.623047"/>
       <use xlink:href="#DejaVuSans-35" x="95.410156"/>
      </g>
     </g>
    </g>
    <g id="ytick_3">
     <g id="line2d_15">
      <g>
       <use xlink:href="#mc891bfe43e" x="51.32" y="270.709697" style="stroke: #000000; stroke-width: 0.8"/>
      </g>
     </g>
     <g id="text_16">
      <!-- 1.0 -->
      <g transform="translate(28.416875 274.508916)scale(0.1 -0.1)">
       <use xlink:href="#DejaVuSans-31"/>
       <use xlink:href="#DejaVuSans-2e" x="63.623047"/>
       <use xlink:href="#DejaVuSans-30" x="95.410156"/>
      </g>
     </g>
    </g>
    <g id="ytick_4">
     <g id="line2d_16">
      <g>
       <use xlink:href="#mc891bfe43e" x="51.32" y="178.194545" style="stroke: #000000; stroke-width: 0.8"/>
      </g>
     </g>
     <g id="text_17">
      <!-- 1.5 -->
      <g transform="translate(28.416875 181.993764)scale(0.1 -0.1)">
       <use xlink:href="#DejaVuSans-31"/>
       <use xlink:href="#DejaVuSans-2e" x="63.623047"/>
       <use xlink:href="#DejaVuSans-35" x="95.410156"/>
      </g>
     </g>
    </g>
    <g id="ytick_5">
     <g id="line2d_17">
      <g>
       <use xlink:href="#mc891bfe43e" x="51.32" y="85.679394" style="stroke: #000000; stroke-width: 0.8"/>
      </g>
     </g>
     <g id="text_18">
      <!-- 2.0 -->
      <g transform="translate(28.416875 89.478613)scale(0.1 -0.1)">
       <use xlink:href="#DejaVuSans-32"/>
       <use xlink:href="#DejaVuSans-2e" x="63.623047"/>
       <use xlink:href="#DejaVuSans-30" x="95.410156"/>
      </g>
     </g>
    </g>
    <g id="text_19">
     <!-- Cost [M] -->
     <g transform="translate(21.505313 275.772187)rotate(-90)scale(0.14 -0.14)">
      <defs>
       <path id="DejaVuSans-43" d="M 4122 4306 
L 4122 3641 
Q 3803 3938 3442 4084 
Q 3081 4231 2675 4231 
Q 1875 4231 1450 3742 
Q 1025 3253 1025 2328 
Q 1025 1406 1450 917 
Q 1875 428 2675 428 
Q 3081 428 3442 575 
Q 3803 722 4122 1019 
L 4122 359 
Q 3791 134 3420 21 
Q 3050 -91 2638 -91 
Q 1578 -91 968 557 
Q 359 1206 359 2328 
Q 359 3453 968 4101 
Q 1578 4750 2638 4750 
Q 3056 4750 3426 4639 
Q 3797 4528 4122 4306 
z
" transform="scale(0.015625)"/>
       <path id="DejaVuSans-6f" d="M 1959 3097 
Q 1497 3097 1228 2736 
Q 959 2375 959 1747 
Q 959 1119 1226 758 
Q 1494 397 1959 397 
Q 2419 397 2687 759 
Q 2956 1122 2956 1747 
Q 2956 2369 2687 2733 
Q 2419 3097 1959 3097 
z
M 1959 3584 
Q 2709 3584 3137 3096 
Q 3566 2609 3566 1747 
Q 3566 888 3137 398 
Q 2709 -91 1959 -91 
Q 1206 -91 779 398 
Q 353 888 353 1747 
Q 353 2609 779 3096 
Q 1206 3584 1959 3584 
z
" transform="scale(0.015625)"/>
       <path id="DejaVuSans-74" d="M 1172 4494 
L 1172 3500 
L 2356 3500 
L 2356 3053 
L 1172 3053 
L 1172 1153 
Q 1172 725 1289 603 
Q 1406 481 1766 481 
L 2356 481 
L 2356 0 
L 1766 0 
Q 1100 0 847 248 
Q 594 497 594 1153 
L 594 3053 
L 172 3053 
L 172 3500 
L 594 3500 
L 594 4494 
L 1172 4494 
z
" transform="scale(0.015625)"/>
       <path id="DejaVuSans-5b" d="M 550 4863 
L 1875 4863 
L 1875 4416 
L 1125 4416 
L 1125 -397 
L 1875 -397 
L 1875 -844 
L 550 -844 
L 550 4863 
z
" transform="scale(0.015625)"/>
       <path id="DejaVuSans-4d" d="M 628 4666 
L 1569 4666 
L 2759 1491 
L 3956 4666 
L 4897 4666 
L 4897 0 
L 4281 0 
L 4281 4097 
L 3078 897 
L 2444 897 
L 1241 4097 
L 1241 0 
L 628 0 
L 628 4666 
z
" transform="scale(0.015625)"/>
       <path id="DejaVuSans-20ac" d="M 3647 4306 
L 3647 3641 
Q 3363 3969 3098 4109 
Q 2834 4250 2516 4250 
Q 2025 4250 1709 3937 
Q 1394 3625 1294 3041 
L 3097 3041 
L 2925 2656 
L 1244 2656 
Q 1238 2581 1236 2509 
Q 1234 2438 1234 2328 
Q 1234 2228 1236 2156 
Q 1238 2084 1244 2009 
L 2638 2009 
L 2463 1625 
L 1294 1625 
Q 1394 1041 1709 725 
Q 2025 409 2516 409 
Q 2834 409 3098 550 
Q 3363 691 3647 1019 
L 3647 359 
Q 3369 134 3080 21 
Q 2791 -91 2491 -91 
Q 1750 -91 1267 362 
Q 784 816 659 1625 
L 0 1625 
L 172 2009 
L 606 2009 
Q 606 2081 604 2154 
Q 603 2228 603 2328 
Q 603 2438 604 2511 
Q 606 2584 606 2656 
L 0 2656 
L 172 3041 
L 659 3041 
Q 784 3844 1268 4297 
Q 1753 4750 2491 4750 
Q 2797 4750 3086 4639 
Q 3375 4528 3647 4306 
z
" transform="scale(0.015625)"/>
       <path id="DejaVuSans-5d" d="M 1947 4863 
L 1947 -844 
L 622 -844 
L 622 -397 
L 1369 -397 
L 1369 4416 
L 622 4416 
L 622 4863 
L 1947 4863 
z
" transform="scale(0.015625)"/>
      </defs>
      <use xlink:href="#DejaVuSans-43"/>
      <use xlink:href="#DejaVuSans-6f" x="69.824219"/>
      <use xlink:href="#DejaVuSans-73" x="131.005859"/>
      <use xlink:href="#DejaVuSans-74" x="183.105469"/>
      <use xlink:href="#DejaVuSans-20" x="222.314453"/>
      <use xlink:href="#DejaVuSans-5b" x="254.101562"/>
      <use xlink:href="#DejaVuSans-4d" x="293.115234"/>
      <use xlink:href="#DejaVuSans-20ac" x="379.394531"/>
      <use xlink:href="#DejaVuSans-5d" x="443.017578"/>
     </g>
    </g>
   </g>
   <g id="LineCollection_1">
    <path d="M 124.143333 455.74 
L 124.143333 48.673333 
" clip-path="url(#pf6e5d578a0)" style="fill: none; stroke-dasharray: 5.55,2.4; stroke-dashoffset: 0; stroke: #808080; stroke-width: 1.5"/>
    <path d="M 196.966667 455.74 
L 196.966667 48.673333 
" clip-path="url(#pf6e5d578a0)" style="fill: none; stroke-dasharray: 5.55,2.4; stroke-dashoffset: 0; stroke: #808080; stroke-width: 1.5"/>
    <path d="M 269.79 455.74 
L 269.79 48.673333 
" clip-path="url(#pf6e5d578a0)" style="fill: none; stroke-dasharray: 5.55,2.4; stroke-dashoffset: 0; stroke: #808080; stroke-width: 1.5"/>
    <path d="M 342.613333 455.74 
L 342.613333 48.673333 
" clip-path="url(#pf6e5d578a0)" style="fill: none; stroke-dasharray: 5.55,2.4; stroke-dashoffset: 0; stroke: #808080; stroke-width: 1.5"/>
    <path d="M 415.436667 455.74 
L 415.436667 48.673333 
" clip-path="url(#pf6e5d578a0)" style="fill: none; stroke-dasharray: 5.55,2.4; stroke-dashoffset: 0; stroke: #808080; stroke-width: 1.5"/>
    <path d="M 488.26 455.74 
L 488.26 48.673333 
" clip-path="url(#pf6e5d578a0)" style="fill: none; stroke-dasharray: 5.55,2.4; stroke-dashoffset: 0; stroke: #808080; stroke-width: 1.5"/>
    <path d="M 561.083333 455.74 
L 561.083333 48.673333 
" clip-path="url(#pf6e5d578a0)" style="fill: none; stroke-dasharray: 5.55,2.4; stroke-dashoffset: 0; stroke: #808080; stroke-width: 1.5"/>
    <path d="M 633.906667 455.74 
L 633.906667 48.673333 
" clip-path="url(#pf6e5d578a0)" style="fill: none; stroke-dasharray: 5.55,2.4; stroke-dashoffset: 0; stroke: #808080; stroke-width: 1.5"/>
    <path d="M 706.73 455.74 
L 706.73 48.673333 
" clip-path="url(#pf6e5d578a0)" style="fill: none; stroke-dasharray: 5.55,2.4; stroke-dashoffset: 0; stroke: #808080; stroke-width: 1.5"/>
    <path d="M 779.553333 455.74 
L 779.553333 48.673333 
" clip-path="url(#pf6e5d578a0)" style="fill: none; stroke-dasharray: 5.55,2.4; stroke-dashoffset: 0; stroke: #808080; stroke-width: 1.5"/>
    <path d="M 852.376667 455.74 
L 852.376667 48.673333 
" clip-path="url(#pf6e5d578a0)" style="fill: none; stroke-dasharray: 5.55,2.4; stroke-dashoffset: 0; stroke: #808080; stroke-width: 1.5"/>
   </g>
   <g id="patch_291">
    <path d="M 51.32 455.74 
L 51.32 28.32 
" style="fill: none; stroke: #000000; stroke-width: 0.8; stroke-linejoin: miter; stroke-linecap: square"/>
   </g>
   <g id="patch_292">
    <path d="M 51.32 455.74 
L 925.2 455.74 
" style="fill: none; stroke: #000000; stroke-width: 0.8; stroke-linejoin: miter; stroke-linecap: square"/>
   </g>
   <g id="text_20">
    <!-- $Marginal cost$ -->
    <g transform="translate(449.86 22.32)scale(0.12 -0.12)">
     <defs>
      <path id="DejaVuSans-Oblique-4d" d="M 1081 4666 
L 2028 4666 
L 2572 1522 
L 4378 4666 
L 5350 4666 
L 4441 0 
L 3828 0 
L 4622 4091 
L 2791 897 
L 2175 897 
L 1581 4103 
L 788 0 
L 172 0 
L 1081 4666 
z
" transform="scale(0.015625)"/>
      <path id="DejaVuSans-Oblique-61" d="M 3438 1997 
L 3047 0 
L 2472 0 
L 2578 531 
Q 2325 219 2001 64 
Q 1678 -91 1281 -91 
Q 834 -91 548 182 
Q 263 456 263 884 
Q 263 1497 752 1853 
Q 1241 2209 2100 2209 
L 2900 2209 
L 2931 2363 
Q 2938 2388 2941 2417 
Q 2944 2447 2944 2509 
Q 2944 2788 2717 2942 
Q 2491 3097 2081 3097 
Q 1800 3097 1504 3025 
Q 1209 2953 897 2809 
L 997 3341 
Q 1322 3463 1633 3523 
Q 1944 3584 2234 3584 
Q 2853 3584 3176 3315 
Q 3500 3047 3500 2534 
Q 3500 2431 3484 2292 
Q 3469 2153 3438 1997 
z
M 2816 1759 
L 2241 1759 
Q 1534 1759 1195 1570 
Q 856 1381 856 984 
Q 856 709 1029 553 
Q 1203 397 1509 397 
Q 1978 397 2328 733 
Q 2678 1069 2791 1631 
L 2816 1759 
z
" transform="scale(0.015625)"/>
      <path id="DejaVuSans-Oblique-72" d="M 2853 2969 
Q 2766 3016 2653 3041 
Q 2541 3066 2413 3066 
Q 1953 3066 1609 2717 
Q 1266 2369 1153 1784 
L 800 0 
L 225 0 
L 909 3500 
L 1484 3500 
L 1375 2956 
Q 1603 3259 1920 3421 
Q 2238 3584 2597 3584 
Q 2691 3584 2781 3573 
Q 2872 3563 2963 3538 
L 2853 2969 
z
" transform="scale(0.015625)"/>
      <path id="DejaVuSans-Oblique-67" d="M 3816 3500 
L 3219 434 
Q 3047 -456 2561 -893 
Q 2075 -1331 1253 -1331 
Q 950 -1331 690 -1286 
Q 431 -1241 206 -1147 
L 313 -588 
Q 525 -725 762 -790 
Q 1000 -856 1269 -856 
Q 1816 -856 2167 -557 
Q 2519 -259 2631 300 
L 2681 563 
Q 2441 288 2122 144 
Q 1803 0 1434 0 
Q 903 0 598 351 
Q 294 703 294 1319 
Q 294 1803 478 2267 
Q 663 2731 997 3091 
Q 1219 3328 1514 3456 
Q 1809 3584 2131 3584 
Q 2484 3584 2746 3420 
Q 3009 3256 3138 2956 
L 3238 3500 
L 3816 3500 
z
M 2950 2216 
Q 2950 2641 2750 2872 
Q 2550 3103 2181 3103 
Q 1953 3103 1747 3012 
Q 1541 2922 1394 2759 
Q 1156 2491 1023 2127 
Q 891 1763 891 1375 
Q 891 944 1092 712 
Q 1294 481 1672 481 
Q 2219 481 2584 976 
Q 2950 1472 2950 2216 
z
" transform="scale(0.015625)"/>
      <path id="DejaVuSans-Oblique-69" d="M 1172 4863 
L 1747 4863 
L 1606 4134 
L 1031 4134 
L 1172 4863 
z
M 909 3500 
L 1484 3500 
L 800 0 
L 225 0 
L 909 3500 
z
" transform="scale(0.015625)"/>
      <path id="DejaVuSans-Oblique-6e" d="M 3566 2113 
L 3156 0 
L 2578 0 
L 2988 2091 
Q 3016 2238 3031 2350 
Q 3047 2463 3047 2528 
Q 3047 2791 2881 2937 
Q 2716 3084 2419 3084 
Q 1956 3084 1622 2776 
Q 1288 2469 1184 1941 
L 800 0 
L 225 0 
L 903 3500 
L 1478 3500 
L 1363 2950 
Q 1603 3253 1940 3418 
Q 2278 3584 2650 3584 
Q 3113 3584 3367 3334 
Q 3622 3084 3622 2631 
Q 3622 2519 3608 2391 
Q 3594 2263 3566 2113 
z
" transform="scale(0.015625)"/>
      <path id="DejaVuSans-Oblique-6c" d="M 1172 4863 
L 1747 4863 
L 800 0 
L 225 0 
L 1172 4863 
z
" transform="scale(0.015625)"/>
      <path id="DejaVuSans-Oblique-63" d="M 3431 3366 
L 3316 2797 
Q 3109 2947 2876 3022 
Q 2644 3097 2394 3097 
Q 2119 3097 1870 3000 
Q 1622 2903 1453 2725 
Q 1184 2453 1037 2087 
Q 891 1722 891 1331 
Q 891 859 1127 628 
Q 1363 397 1844 397 
Q 2081 397 2348 469 
Q 2616 541 2906 684 
L 2797 116 
Q 2547 13 2283 -39 
Q 2019 -91 1741 -91 
Q 1044 -91 669 257 
Q 294 606 294 1253 
Q 294 1797 489 2255 
Q 684 2713 1069 3078 
Q 1331 3328 1684 3456 
Q 2038 3584 2456 3584 
Q 2700 3584 2940 3529 
Q 3181 3475 3431 3366 
z
" transform="scale(0.015625)"/>
      <path id="DejaVuSans-Oblique-6f" d="M 1625 -91 
Q 1009 -91 651 289 
Q 294 669 294 1325 
Q 294 1706 417 2101 
Q 541 2497 738 2766 
Q 1047 3184 1428 3384 
Q 1809 3584 2291 3584 
Q 2888 3584 3255 3212 
Q 3622 2841 3622 2241 
Q 3622 1825 3500 1412 
Q 3378 1000 3181 728 
Q 2875 309 2494 109 
Q 2113 -91 1625 -91 
z
M 891 1344 
Q 891 869 1089 633 
Q 1288 397 1691 397 
Q 2269 397 2648 901 
Q 3028 1406 3028 2181 
Q 3028 2634 2825 2865 
Q 2622 3097 2228 3097 
Q 1903 3097 1650 2945 
Q 1397 2794 1197 2484 
Q 1050 2253 970 1956 
Q 891 1659 891 1344 
z
" transform="scale(0.015625)"/>
      <path id="DejaVuSans-Oblique-73" d="M 3200 3397 
L 3091 2853 
Q 2863 2978 2609 3040 
Q 2356 3103 2088 3103 
Q 1634 3103 1373 2948 
Q 1113 2794 1113 2528 
Q 1113 2219 1719 2053 
Q 1766 2041 1788 2034 
L 1972 1978 
Q 2547 1819 2739 1644 
Q 2931 1469 2931 1166 
Q 2931 609 2489 259 
Q 2047 -91 1331 -91 
Q 1053 -91 747 -37 
Q 441 16 72 128 
L 184 722 
Q 500 559 806 475 
Q 1113 391 1394 391 
Q 1816 391 2080 572 
Q 2344 753 2344 1031 
Q 2344 1331 1650 1516 
L 1591 1531 
L 1394 1581 
Q 956 1697 753 1886 
Q 550 2075 550 2369 
Q 550 2928 970 3256 
Q 1391 3584 2113 3584 
Q 2397 3584 2667 3537 
Q 2938 3491 3200 3397 
z
" transform="scale(0.015625)"/>
      <path id="DejaVuSans-Oblique-74" d="M 2706 3500 
L 2619 3053 
L 1472 3053 
L 1100 1153 
Q 1081 1047 1072 975 
Q 1063 903 1063 863 
Q 1063 663 1183 572 
Q 1303 481 1569 481 
L 2150 481 
L 2053 0 
L 1503 0 
Q 991 0 739 200 
Q 488 400 488 806 
Q 488 878 497 964 
Q 506 1050 525 1153 
L 897 3053 
L 409 3053 
L 500 3500 
L 978 3500 
L 1172 4494 
L 1747 4494 
L 1556 3500 
L 2706 3500 
z
" transform="scale(0.015625)"/>
     </defs>
     <use xlink:href="#DejaVuSans-Oblique-4d" transform="translate(0 0.015625)"/>
     <use xlink:href="#DejaVuSans-Oblique-61" transform="translate(86.279297 0.015625)"/>
     <use xlink:href="#DejaVuSans-Oblique-72" transform="translate(147.558594 0.015625)"/>
     <use xlink:href="#DejaVuSans-Oblique-67" transform="translate(188.671875 0.015625)"/>
     <use xlink:href="#DejaVuSans-Oblique-69" transform="translate(252.148438 0.015625)"/>
     <use xlink:href="#DejaVuSans-Oblique-6e" transform="translate(279.931641 0.015625)"/>
     <use xlink:href="#DejaVuSans-Oblique-61" transform="translate(343.310547 0.015625)"/>
     <use xlink:href="#DejaVuSans-Oblique-6c" transform="translate(404.589844 0.015625)"/>
     <use xlink:href="#DejaVuSans-Oblique-63" transform="translate(432.373047 0.015625)"/>
     <use xlink:href="#DejaVuSans-Oblique-6f" transform="translate(487.353516 0.015625)"/>
     <use xlink:href="#DejaVuSans-Oblique-73" transform="translate(548.535156 0.015625)"/>
     <use xlink:href="#DejaVuSans-Oblique-74" transform="translate(600.634766 0.015625)"/>
    </g>
   </g>
   <g id="legend_1">
    <g id="patch_293">
     <path d="M 822.853125 50.998125 
L 918.2 50.998125 
Q 920.2 50.998125 920.2 48.998125 
L 920.2 35.32 
Q 920.2 33.32 918.2 33.32 
L 822.853125 33.32 
Q 820.853125 33.32 820.853125 35.32 
L 820.853125 48.998125 
Q 820.853125 50.998125 822.853125 50.998125 
z
" style="fill: #ffffff; opacity: 0.8; stroke: #cccccc; stroke-linejoin: miter"/>
    </g>
    <g id="patch_294">
     <path d="M 824.853125 44.918438 
L 844.853125 44.918438 
L 844.853125 37.918438 
L 824.853125 37.918438 
z
" style="fill: #1f77b4"/>
    </g>
    <g id="text_21">
     <!-- ELECTRICITY -->
     <g transform="translate(852.853125 44.918438)scale(0.1 -0.1)">
      <defs>
       <path id="DejaVuSans-45" d="M 628 4666 
L 3578 4666 
L 3578 4134 
L 1259 4134 
L 1259 2753 
L 3481 2753 
L 3481 2222 
L 1259 2222 
L 1259 531 
L 3634 531 
L 3634 0 
L 628 0 
L 628 4666 
z
" transform="scale(0.015625)"/>
       <path id="DejaVuSans-4c" d="M 628 4666 
L 1259 4666 
L 1259 531 
L 3531 531 
L 3531 0 
L 628 0 
L 628 4666 
z
" transform="scale(0.015625)"/>
       <path id="DejaVuSans-52" d="M 2841 2188 
Q 3044 2119 3236 1894 
Q 3428 1669 3622 1275 
L 4263 0 
L 3584 0 
L 2988 1197 
Q 2756 1666 2539 1819 
Q 2322 1972 1947 1972 
L 1259 1972 
L 1259 0 
L 628 0 
L 628 4666 
L 2053 4666 
Q 2853 4666 3247 4331 
Q 3641 3997 3641 3322 
Q 3641 2881 3436 2590 
Q 3231 2300 2841 2188 
z
M 1259 4147 
L 1259 2491 
L 2053 2491 
Q 2509 2491 2742 2702 
Q 2975 2913 2975 3322 
Q 2975 3731 2742 3939 
Q 2509 4147 2053 4147 
L 1259 4147 
z
" transform="scale(0.015625)"/>
       <path id="DejaVuSans-49" d="M 628 4666 
L 1259 4666 
L 1259 0 
L 628 0 
L 628 4666 
z
" transform="scale(0.015625)"/>
       <path id="DejaVuSans-59" d="M -13 4666 
L 666 4666 
L 1959 2747 
L 3244 4666 
L 3922 4666 
L 2272 2222 
L 2272 0 
L 1638 0 
L 1638 2222 
L -13 4666 
z
" transform="scale(0.015625)"/>
      </defs>
      <use xlink:href="#DejaVuSans-45"/>
      <use xlink:href="#DejaVuSans-4c" x="63.183594"/>
      <use xlink:href="#DejaVuSans-45" x="118.896484"/>
      <use xlink:href="#DejaVuSans-43" x="182.080078"/>
      <use xlink:href="#DejaVuSans-54" x="251.904297"/>
      <use xlink:href="#DejaVuSans-52" x="312.988281"/>
      <use xlink:href="#DejaVuSans-49" x="382.470703"/>
      <use xlink:href="#DejaVuSans-43" x="411.962891"/>
      <use xlink:href="#DejaVuSans-49" x="481.787109"/>
      <use xlink:href="#DejaVuSans-54" x="511.279297"/>
      <use xlink:href="#DejaVuSans-59" x="572.363281"/>
     </g>
    </g>
   </g>
  </g>
 </g>
 <defs>
  <clipPath id="pf6e5d578a0">
   <rect x="51.32" y="28.32" width="873.88" height="427.42"/>
  </clipPath>
 </defs>
</svg>
